<svg xmlns="http://www.w3.org/2000/svg" viewBox="0 0 750.8 95.9"><defs><style>.cls-1{fill:#fff;}</style></defs><title>Asset 1</title><g id="Layer_2" data-name="Layer 2"><g id="Layer_1-2" data-name="Layer 1"><path class="cls-1" d="M155.7,86.7v4.1H0V86.7ZM63.4,35.1H0v4.1H66A19.05,19.05,0,0,1,63.4,35.1Zm92.1,0H92.2a34.54,34.54,0,0,1-2.5,4.1h65.8ZM84.6,23a1.05,1.05,0,0,1,.5-.9c.4-.7,1.5-.6,1.5-.6s.1,0,.2-.1a1.93,1.93,0,0,0,.3-1,1.18,1.18,0,0,0-1.3-1.2h0a1.5,1.5,0,0,0-1.1.4c-.1.1-.2.3-.3.4a4.79,4.79,0,0,0,1.1,5.1,4.35,4.35,0,0,0,.6.7,4.05,4.05,0,0,0-.5-.9A3,3,0,0,1,84.6,23ZM62.9,13.3V6.6c5-.3,24.7-.4,29.8,0v6.8c0,12.6-1.2,24.9-14.9,31.3C64.1,38.2,62.9,25.9,62.9,13.3Zm7.8,20.2.3-.3h0l.1.1a1.38,1.38,0,0,0,.4.3s.1.1.1,0l.3-.3h0v-.4a.37.37,0,0,0,.1-.3.9.9,0,0,1,.1-.5h.1a2.77,2.77,0,0,1,.9.1c.3,0,.3.3.5.6.4.8,2,1.6,2.4.6.3-.1.5-.4.5-1a4.87,4.87,0,0,1,.1-1.2,1.71,1.71,0,0,0,1.2,1.6,3.64,3.64,0,0,0,1.6,1.4c2.3,1.2,1.9,2.6,1.9,2.6a1.05,1.05,0,0,0-.5.9v.4l-.2.2a1.8,1.8,0,0,0-.6.9c0,.2.8.2,1.1.2a.37.37,0,0,0,.3-.1l.3-.3a.37.37,0,0,0,.1-.3h0c.5.1.7,0,.8-.1l.3-.3c.2-.1,0-.3-.1-.4a1.71,1.71,0,0,1-.7-1.3,1.08,1.08,0,0,1,.3-.7l.2-.2a.1.1,0,0,1,.1-.1c.3-.3.6-.6.5-.9q0-.15-.3-.3c-.2,0-.3-.2-.3-.4a.71.71,0,0,1,.3-.6,4.07,4.07,0,0,0,1.5-2.5,1.69,1.69,0,0,0,1.4-.1c.2-.1.3-.3.5-.4a2.65,2.65,0,0,0,.5-.6c.2-.4.5-1.9-.9-3.9l.3-.3h0a1.51,1.51,0,0,1,.7-1.1,1.61,1.61,0,0,0,.2-2.3h0a.48.48,0,0,1-.2-.6c0-.1.1-.1.2-.2.4-.3.5-.4.6-1.3a1.79,1.79,0,0,0-1.8-1.8h-.1a2.52,2.52,0,0,0-2,.9,2.76,2.76,0,0,0-.7.9c-.6,1.2-.7,3.3.9,5.5,1.1,1.5,1.5,2.7,1.1,3.4l.2.3c-.4.2-.7-.3-.7-.5a12.27,12.27,0,0,0-1.2-2.6c-1-1.6-1.1-3.3-.9-7,.5-8.8-4.9-8.4-7.2-8.1.2-.7-1-.9-1.6-1.9h0l-.3.3a2.92,2.92,0,0,0,.2.9A7.22,7.22,0,0,1,71,9c-.1-.1-.1-.1-.2-.1h0l-.4.2A6.34,6.34,0,0,0,72,11.4a.19.19,0,0,1,0,.3h0c-.6.7-1,2.5-1.5,2.8a1.61,1.61,0,0,0-.4.7.44.44,0,0,0,.1.5h0c.2.1.1.4.3.4h.4a.35.35,0,0,0-.1.5c.1.1.2.2.3.2a.64.64,0,0,0,.6,0c.2-.1.6,0,.8,0a2.77,2.77,0,0,1,1.3-.1.37.37,0,0,0-.3.1h0l-.4.4v.1a2.65,2.65,0,0,1,.5.6,1.45,1.45,0,0,1-.7-.2c-.3-.4-.5-.5-.8-.4a.78.78,0,0,0-.4.4,1.79,1.79,0,0,1-.5.7h-.1a7.46,7.46,0,0,0-1.2.7c-.1.1-.2.2-.2.3s-.1.2-.1.3-.1.2-.2.3h-.1a2,2,0,0,0-.8.4c0,.1-.1.1-.1.2a.22.22,0,0,0-.2.2c-.1.1-.2.3-.3.4s-.1.1,0,.2a1.66,1.66,0,0,0,1.2.5l.3-.3s.8.7.9.4l.3-.3h0c.1-.2-.4-.4,0-1.4a2,2,0,0,0,.4-.8c0-.1.1-.2.1-.3s.3-.1.4-.2a3.91,3.91,0,0,1,1.6,1.2l-.6-.3c-.1,0-.4-.3-.7-.1l-.3.3h-.1s-.4.3-.3.5v.5a.9.9,0,0,1-.1.5,8.66,8.66,0,0,0-.2,1c-.1.2-.1.4-.2.6a1,1,0,0,1,.1.3c0,.1,0,.1-.2.2s-.6.9-.5,1,.2.3,1.3-.1h.1l.3-.3c.1-.1.1-.2.2-.3l.6-.3.4-.4c.1-.1.2-.2.1-.2-.6-.1-.8-.1-.9-1.1v-.4h.1c1.3-.1,1.5,1.4,1.5,1.4a1.59,1.59,0,0,0,.8,1l-.2-.1h0l-.3.3.3,1.2a2,2,0,0,0,.3,1.1,3.7,3.7,0,0,0,.5,1.1,1.64,1.64,0,0,0-1.1.7c-.6.4-1,1.3,0,3.4h0a.9.9,0,0,1-.5-.1c-.9-.3-1.1-.9-1.9-.4-.2.1-.5.1-.6.3s-.1.1-.1.2h0c-.1.2-.1.2-.3.2h0a2.65,2.65,0,0,0-.6.5,1.34,1.34,0,0,0-.6.7c0,.1-.1.2,0,.3C70.5,33.8,70.7,33.6,70.7,33.5ZM6.5,76.4H20.7l8.5-4.2V44.9H15.6l-5.7,5H21.1V69.2Zm47-23.1H45.4V72l-4.2-3V53.3H33.1V70.8l6.6,4.8,6.4-2.5L48.8,75H58.9l-5.3-3.8ZM83.1,74.9h8.1V53.3H83.1Zm66.8-10.8V56.5L144,52.8l-5.7,2.7V53.3h-8.1V74.9h8.1V57.8l3.4,1.9v4.5Zm-34.5,2v1.4L127.6,75H115.3l-8-4.9V53.3h14.6l5.1,3.4v9.4Zm3.8-4.5v-3L116.8,57h-1.4v4.6ZM58.9,84.4V53.3H67v2.1L72,53l7.3,4.7V70.8L71.5,75H67.1v5.9Zm8.2-15.1h4.2v-9l-4.2-2.7Zm36.7,5.6v-30H95.6v30Zm-12.6-30H83.1v5h8.1ZM62.1,9.2V5.8h.4c1.6-.1,5.4-.2,9.8-.3L70.3.3a4.24,4.24,0,0,1,3.6,2.4h2.2A5.45,5.45,0,0,1,77.8,0a5.93,5.93,0,0,1,1.7,2.7h2.2A4.4,4.4,0,0,1,85.4.3L83.5,5.4c4.4,0,8.1.1,9.7.3h.4V9.1c.1,14.3.3,29-15.6,36.3l-.2.1-.2-.1C61.8,38.2,61.9,23.4,62.1,9.2Zm.8,4.1c0,12.6,1.2,24.9,14.9,31.3,13.7-6.4,15-18.8,15-31.3V6.5C87.7,6.2,68,6.2,63,6.5V9.1C62.9,10.5,62.9,11.9,62.9,13.3Zm83.2,60a1.9,1.9,0,0,1,1.9-1.9,1.9,1.9,0,1,1,0,3.8A1.9,1.9,0,0,1,146.1,73.3Zm.3,0a1.65,1.65,0,0,0,3.3-.1,1.58,1.58,0,0,0-1.6-1.6A1.69,1.69,0,0,0,146.4,73.3Zm1.2.9h-.3v-2h.7c.1,0,.7,0,.7.5a.66.66,0,0,1-.4.5c.2,0,.3.1.3.4s.1.4.1.6h-.3c0-.2-.1-.3-.1-.5s-.1-.4-.4-.4h-.3Zm0-1.1h.4c.1,0,.4,0,.4-.3s-.3-.3-.4-.3h-.4ZM87.1,20.4a1.69,1.69,0,0,1-.3,1,1.75,1.75,0,0,0,.7-1.4,1.18,1.18,0,0,0-1.3-1.2h0a2.13,2.13,0,0,0-1.5.7,1.5,1.5,0,0,1,1.1-.4,1.32,1.32,0,0,1,1.3,1.3ZM76,23.7c-.1-.1-1.5-.6-1.8-1.6,0,0-.2-1.5-1.5-1.4-.2,0-.5.1-.5.3v.1h.1c1.3-.1,1.5,1.4,1.5,1.4a1.59,1.59,0,0,0,.8,1C75.9,24,76,23.7,76,23.7Zm-1.6,7.2c-.8-1.6-.7-2.5-.3-3-.6.4-1,1.3,0,3.4h0C74.5,31.4,74.4,31.1,74.4,30.9ZM72.6,13.4l.3-.2s-.2-.3-.3-.3-.5.9-.7.9,0,.1,0,.1l.3-.3c0,.1,0,.1.1.1s.4.1.5,0v-.4C72.9,13.4,72.8,13.4,72.6,13.4ZM85,22.7a.75.75,0,0,1,.1-.5.89.89,0,0,0-.5.8,3.38,3.38,0,0,0,.9,1.9c.2.3.3.6.5.9l.1.1.3-.3h0a3.13,3.13,0,0,0-.5-1A2.84,2.84,0,0,1,85,22.7Zm-.3,7.9a.9.9,0,0,1-.1.5,1.53,1.53,0,0,0,1.3-.2c.2-.1.3-.3.5-.4l-.1.1A1.53,1.53,0,0,1,84.7,30.6ZM72.1,23.3v.3l.6-.3.4-.4a2,2,0,0,1-.8.4Zm-1.5.8c-.1-.2.4-.9.5-1s.2-.1.2-.2-.1-.2-.1-.3a1.42,1.42,0,0,1,.2-.6,5.76,5.76,0,0,0,.2-1c0-.2.1-.3.1-.5v-.7h-.1s-.4.3-.3.5v.5a.9.9,0,0,1-.1.5,8.66,8.66,0,0,0-.2,1c-.1.2-.1.4-.2.6a1,1,0,0,1,.1.3c0,.1,0,.1-.2.2s-.6.9-.5,1,.2.3,1.3-.1h.1l.3-.3h-.1c-1,.4-1.2.2-1.2.1ZM82.4,38.4c-.3,0-.3.2-.3.3.5.1.7,0,.8-.1l.3-.3A1.18,1.18,0,0,1,82.4,38.4Zm-8.3-5.9c-.2-.4-.2-.6-.5-.6a2.77,2.77,0,0,0-.9-.1c-.2,0-.3.1-.4.3l-.1.1h.1a2.77,2.77,0,0,1,.9.1c.3,0,.3.3.5.6.4.8,2,1.6,2.4.6-.6.2-1.6-.4-2-1Zm7.5,6.7c-.3,0-1.2,0-1.1-.2a1.42,1.42,0,0,1,.2-.6,1.8,1.8,0,0,0-.6.9c0,.2.8.2,1.1.2a.37.37,0,0,0,.3-.1l.3-.3c.1.1,0,.1-.2.1ZM70.7,33.6l.3-.3c-.1.1-.3.2-1.3-.4a.19.19,0,0,1,0-.3c.1-.1.1-.3.2-.4a1.34,1.34,0,0,0-.6.7c0,.1-.1.2,0,.3,1.2.6,1.4.4,1.4.4Zm1.1-.3a1.38,1.38,0,0,0-.4-.3c-.1-.1-.3-.1-.3,0a.37.37,0,0,1-.1.3h0l.1.1a1.38,1.38,0,0,0,.4.3s.1.1.1,0l.3-.3h0c0-.1-.1-.2-.1-.1ZM77.1,13a2.38,2.38,0,0,1,.6-1.1c.1-.1,0-.2-.1-.2a4.13,4.13,0,0,0-2.9.2,3.63,3.63,0,0,1-1.7-.7l1.5,1.2c.2.1.2,0,.3-.1a1.39,1.39,0,0,1,1.7-.4l.5.2c.1.1.1.1.1.3a1.06,1.06,0,0,1-.9,1h-.8l.5.1a1,1,0,0,0,1.2-.5Zm-3.7,3.9h0l-.4.3v.1a2.65,2.65,0,0,1,.5.6c.2,0,.3-.1.5-.2s-.4-.8-.6-.8Zm.1-7.7-.3.3a2.92,2.92,0,0,0,.2.9c.2,0,.3.1.5.1a3.26,3.26,0,0,1-.4-1.3Zm1.7,7.3a2.77,2.77,0,0,1-.9-.1,2.92,2.92,0,0,0-1.6.1c-.2,0-.6-.1-.8,0a.64.64,0,0,1-.6,0c-.1-.1-.2-.1-.3-.2s.1-.5.1-.5-.3.1-.4,0-.1-.4-.3-.4a.4.4,0,0,1-.2-.4h0a1.61,1.61,0,0,1,.4-.7c.5-.4.9-2.1,1.5-2.8a.19.19,0,0,0,0-.3h0a5.33,5.33,0,0,1-1.6-2.3h0l-.3.3a6.34,6.34,0,0,0,1.6,2.3.19.19,0,0,1,0,.3h0c-.6.7-1,2.5-1.5,2.8a1.61,1.61,0,0,0-.4.7.44.44,0,0,0,.1.5h0c.2.1.1.4.3.4h.4a.35.35,0,0,0-.1.5c.1.1.2.2.3.2a.64.64,0,0,0,.6,0c.2-.1.6,0,.8,0a2.77,2.77,0,0,1,1.3-.1.9.9,0,0,1,.5.1,2.82,2.82,0,0,0,1.1-.4Zm-5.5,4.6c-.3,0-.3.4-.3.4a1.85,1.85,0,0,1-1.2-.5v-.2c.1-.1.1-.2.2-.2a.22.22,0,0,0-.2.2c-.1.1-.2.3-.3.4s-.1.1,0,.2a1.66,1.66,0,0,0,1.2.5l.3-.3s.8.7.9.4l.3-.3h0c-.1.1-.9-.7-.9-.6Zm4.1-.9c.1-.2-1.3-1.5-1.8-1.5a1,1,0,0,0-.8.5c.1-.1.3-.1.4-.2a3.91,3.91,0,0,1,1.6,1.2h.3c.1-.1.2-.1.3-.2Zm12,8.7c.4-.7,0-1.9-1.1-3.4-1.6-2.2-1.5-4.3-.9-5.5a2.09,2.09,0,0,1,.4-.6,2.76,2.76,0,0,0-.7.9c-.6,1.2-.7,3.3.9,5.5,1.1,1.5,1.5,2.7,1.1,3.4l-.1.1a1.47,1.47,0,0,0,.5-.6Zm-9.2-.3c.1.1.2.1.1.3a1.34,1.34,0,0,0,0,2h0c.1.1.1.1,0,.3a.35.35,0,0,1-.1.2A1.71,1.71,0,0,0,77.8,33a3.64,3.64,0,0,0,1.6,1.4c2.3,1.1,2,2.6,2,2.6a1.05,1.05,0,0,0-.5.9v.4l.2-.2c.2-.1.1-.4.1-.5a1.05,1.05,0,0,1,.5-.9s.4-1.4-1.9-2.7a3.64,3.64,0,0,1-1.6-1.4A1.69,1.69,0,0,1,77,30.7a1,1,0,0,1-.3-1.2,1.29,1.29,0,0,1,1.2-.9c.3,0,.2.1.1.2a3,3,0,0,0-.4.8c-.3,0-.6.4-.6.7,0,.1.1.2.2.1s.3-.2.3-.3-.1.6.1.8.3-.1.3-.2c-.3-.5.1-1.3.6-1.9a.44.44,0,0,0-.1-.5h-.1a2.54,2.54,0,0,0-1.2.2A4.91,4.91,0,0,1,75,25.9c-.1-.4-.2-.7-.3-1.1l-.3-1.2h0l-.3.3.3,1.2a2,2,0,0,0,.3,1.1,3.7,3.7,0,0,0,.5,1.1h.2a4.89,4.89,0,0,0,1.3,1.2Z"/><g id="Layer_2-2" data-name="Layer 2-2"><g id="Layer_2-2-2" data-name="Layer 2-2-2"><path class="cls-1" d="M538.6,36.2c1.4-6.2,3.3-10.7,7-14.6,4.2-4.2,8.7-6.2,12.1-6.2,3.7,0,5.6,1.6,5.6,3.4,0,1.5-1.8,4-2.9,4.7a1.43,1.43,0,0,1-2-.2c-2.1-2.4-4-3.7-5.5-3.7-2.2,0-3.9,1.7-6.2,16.4h8.6l-1.6,3.2c-1.3.1-5.8.4-7.4.4-1.3,7.6-1,7.1-2.9,17-2.6,13.2-6.6,18.1-11.6,22.5-3.3,3.1-6.8,4.4-8.8,4.4-2.9,0-5.4-1.7-5.3-3.7a7.34,7.34,0,0,1,2.7-4.9,1.21,1.21,0,0,1,1.5-.1c2,1.7,4.2,3.2,5.9,3.2,3.7,0,4.4-5.3,6.7-19,1.9-10.6,1.9-11.2,3.1-19.5h-6.3l-.2-.9,2.3-2.8Z"/><path class="cls-1" d="M557.3,71.7c-4.4,0-9.5-2.4-9.5-11.8,0-7.3,3.1-15.5,9.1-20.1,3.3-2.4,7.9-4.6,11.8-4.6,5.3,0,7.8,3.1,7.8,6.7,0,8.1-11.8,11.4-19.9,12.9-.1.8-.2,2.5-.2,3.1,0,4.2,1.3,8.1,5.7,8.1,3.7,0,7.7-2.2,11.5-6.2l1.2,2.3C569,69.3,562.5,71.7,557.3,71.7ZM557,52c9.3-2,11.8-5.4,11.8-9.4,0-2.6-1.4-3.8-3.5-3.8S558.7,41,557,52Z"/><path class="cls-1" d="M601,40a5.21,5.21,0,0,1-2.8,4.3c-.9.4-1.4.3-2.4-.6-2.3-2.5-4.2-4-6.3-4a3.46,3.46,0,0,0-3.6,3.3h0v.3c0,2.2,2.5,3.9,5.3,6.1,4.6,3.4,7.5,5.6,7.5,9.6,0,6.9-9.8,12.7-15.6,12.7-4.1,0-8.3-2.7-8.4-6a5.68,5.68,0,0,1,3.6-4.7c.7-.2,1.1.1,1.7.8,2.4,3.2,5.4,5.3,8.1,5.3a3.8,3.8,0,0,0,4-3.6v-.1c0-1.7-.8-3.3-4.7-6.2s-7.7-5.2-7.6-9.8c0-2.8,1.2-5.5,4.7-8.3a16.23,16.23,0,0,1,9.6-3.8C598,35.3,601,37.4,601,40Z"/><path class="cls-1" d="M623.4,39.4c-1.3.2-5.4.4-7.6.5-3.6,17.2-3.9,18.3-4.6,22.1-.5,2.7-.1,3.4.6,3.4,1.5,0,4.1-1.8,6.7-4.6l1.2,2.3c-2.9,4-9,8.8-13.3,8.8-3.4,0-4.8-2.5-2.9-11.2l4.4-20.6h-6.2l-.1-.7,2.4-3h4.7l1.7-8.3a53.78,53.78,0,0,0,8.3-5l1,.6c-.9,2.9-2.3,8.6-3.1,12.6H625Z"/><path class="cls-1" d="M638.6,63.4c-4.6,5.7-9.9,8.3-12.8,8.3-2.4,0-3.6-2.2-2.3-8s3.3-13.2,4.6-18.8c.5-2,.4-2.7-.2-2.7-.8,0-2.8,1.3-4.6,2.9l-1.1-2.3c4.7-4.7,10.2-7.6,12.9-7.6,2.4,0,2.8,2.5,1.2,9.3-1.3,5.1-3.1,12.3-4.3,17.4q-.9,3,0,3c.6,0,2.7-1.1,5.3-3.7Zm1.7-39.8a5.44,5.44,0,0,1-5.2,5.6h0a4.06,4.06,0,0,1-4.3-3.9h0v-.5a5.55,5.55,0,0,1,5.5-5.5C639,19.3,640.3,21.3,640.3,23.6Z"/><path class="cls-1" d="M667.1,17a8.89,8.89,0,0,0-6.3-2.5,17.07,17.07,0,0,0-8.8,4.1,20.34,20.34,0,0,0-6.9,15.7v2.1H641l-1.7,2.4.3.9h5.6V66.9s-.2,12.9-5.7,12.9c-2.6,0-4.8-1.8-6.3-3.2a1.82,1.82,0,0,0-2.3-.2,6.67,6.67,0,0,0-1.9,2.5,2.46,2.46,0,0,0,.5,2.7,8.89,8.89,0,0,0,6.3,2.5,17.07,17.07,0,0,0,8.8-4.1,20.34,20.34,0,0,0,6.9-15.7l-.1-24.7h5.1a3,3,0,0,0,.8-3.2h-5.9V32.7c0-5.9,0-13.9,5.8-13.9,2.6,0,4.8,1.8,6.3,3.2a1.82,1.82,0,0,0,2.3.2,6.67,6.67,0,0,0,1.9-2.5A3.06,3.06,0,0,0,667.1,17Z"/><path class="cls-1" d="M679.7,71.7a5.33,5.33,0,0,1-3.6-1.5,8,8,0,0,1-1.9-3.5c-3.1,2.1-7,5-9.4,5a9.45,9.45,0,0,1-9.5-9.6c0-3.8,2.1-6.3,6.4-7.8,4.8-1.6,10.6-3.7,12.4-5.1V47.6c0-5.6-2.8-8.8-6.9-8.8a4.59,4.59,0,0,0-3.7,1.8c-.9,1.1-1.4,2.8-2.1,5.1a2.18,2.18,0,0,1-2.3,1.8,3.66,3.66,0,0,1-3.4-3.4c0-1.1,1-2,2.6-3.1,2.3-1.6,6.8-4.5,11.2-5.5a10.28,10.28,0,0,1,10.6,11.2V61.8c0,3.6,1.3,4.7,2.7,4.7a6.6,6.6,0,0,0,2.8-.9l.8,2.2ZM674,51.9c-1.7.9-5.5,2.5-7.3,3.3-3,1.3-4.8,2.8-4.8,5.7a5.69,5.69,0,0,0,5.3,6h.3a10.7,10.7,0,0,0,6.4-2.8Z"/><path class="cls-1" d="M685.8,70.8V68.6c4.9-.5,5.5-.9,5.5-6.2V46.3c0-4.9-.2-5.2-4.9-5.9V38.5a53.86,53.86,0,0,0,11.1-3.1V62.5c0,5.3.5,5.7,5.6,6.2v2.2ZM694,27.7a4.2,4.2,0,0,1,0-8.4h.1a4.12,4.12,0,0,1,4,4.2v.1a4.33,4.33,0,0,1-4.1,4.1Z"/><path class="cls-1" d="M721,70.8H703V68.6c4.9-.5,5.4-.9,5.4-5.9V46.4c0-5.2-.3-5.4-4.9-5.9v-2a44,44,0,0,0,11.1-3.2v8.6c2.7-4.1,6-8.4,9.9-8.4,2.9,0,4.5,1.8,4.5,3.7a5.24,5.24,0,0,1-2.7,4.3,1.52,1.52,0,0,1-2-.1c-1.2-1.2-2.1-2-3.5-2-1.6,0-4.5,2.4-6.3,6.4V62.5c0,5.2.4,5.6,6.4,6Z"/><path class="cls-1" d="M747.3,45.8c-1.4-4.5-3.6-7.7-8.4-7.7a4.82,4.82,0,0,0-5,4.7v.4c0,3.4,2.6,5.1,6.8,7,6.4,2.8,10.1,5.3,10.1,10.7,0,7.2-6.6,10.9-12.8,10.9a20.31,20.31,0,0,1-9.3-2.3c-.4-2.3-1.1-6.7-1.4-9.3l2.3-.4c1.4,5,4.1,9.3,9.6,9.3a5.28,5.28,0,0,0,5.6-5h0v-.3c0-3.5-2.1-5.3-6.4-7.2-5.1-2.4-10.1-4.9-10.1-10.9,0-5.7,5-10.1,12.4-10.1a39.6,39.6,0,0,1,7.7,1c.2,1.9.8,6.8,1.2,8.7Z"/></g></g><rect class="cls-1" x="233.65" width="19.62" height="19.62" rx="1.98" ry="1.98"/><rect class="cls-1" x="233.65" y="25.35" width="19.62" height="19.62" rx="1.98" ry="1.98"/><rect class="cls-1" x="233.65" y="50.69" width="19.62" height="19.62" rx="1.98" ry="1.98"/><rect class="cls-1" x="233.65" y="76.04" width="19.62" height="19.62" rx="1.98" ry="1.98"/><path class="cls-1" d="M263.14,1.79a121.14,121.14,0,0,1,12.93-.71c9.41,0,16.26,3.46,16.26,13.38,0,7.81-4.42,11.14-8.26,11.78,8,13.63,9.09,14.65,10.43,16.13-2.11,1.92-4,2.75-6,2.75a4.69,4.69,0,0,1-4.23-2.69l-7.93-14.78h-4.55l.07,17-8.77.32s.25-15.74.25-23.87C263.33,12.8,263.14,4.86,263.14,1.79ZM283.56,14.4c0-5.31-4-6.85-8-6.85a34.82,34.82,0,0,0-3.65.13c-.06,2.94-.13,9.28-.13,13.82h4.16C280.1,21.5,283.56,19.77,283.56,14.4Z"/><path class="cls-1" d="M295.42,8.06c-.25-4.8-.06-5.5.52-6.08s1.15-.64,3.32-.64h29.32c.25,4.8.13,5.44-.52,6.08-.44.45-1.15.64-3.32.64L316.35,8c0,12.09,0,21.63.13,36.67l-8.9.32c.2-15.36.07-27.9.07-37Z"/><path class="cls-1" d="M357.17,4.09c.51-2.3,1-2.88,6.92-2.88,1.92,0,2.3,1.22,1.66,3.33l-12.48,40s-7.55,1-11.14.45L330.87,5c-.77-2.88-.13-3.78,5.69-3.78,2.44,0,2.88.51,3.4,2.82l8.38,34Z"/><path class="cls-1" d="M287.91,55c0-2.18.9-3,6.08-3,1.86,0,2.75.45,2.75,2.17,0,3.27-.13,10.31-.13,26.5,0,10.24-6.59,15.11-17,15.11s-16.83-5-16.83-15.17c0-14.85-.06-23-.06-25.6,0-2.18,1-3,6.14-3,1.86,0,2.75.45,2.75,2.17,0,3.27-.25,20.29-.25,25.22,0,6.59,2.3,9.92,8.25,9.92S288,86,288,79.39C288,74.21,287.91,57.57,287.91,55Z"/><path class="cls-1" d="M300.74,70.05c-.52-3.78-.52-4.74.19-5.44.51-.52,1.21-.64,4.29-.52l.57-5c.26-2.24,3.27-3,4.8-3,1.79,0,2.69.52,2.69,2v6.14l7.3-.19c.44,3.65.32,4.93-.39,5.57-.51.57-2.05.51-7,.32l-.07,15.93c0,3.46,1.28,4.23,4,4.23a18,18,0,0,0,3-.51c.77,3.13.45,4-.26,4.73s-2.69,1.48-6.91,1.48c-4.67,0-8-1.92-7.94-7.49l.13-18.37Z"/><path class="cls-1" d="M332.93,74.59V95.46l-8.32.32c.13-8.9.13-15.37.13-20.17,0-2.56-.19-6.52-.19-8.7,0-1.92,1.86-2.88,6.14-2.88,1.54,0,2.05.83,2.05,1.92a27.64,27.64,0,0,1-.32,3.65l.19.13c2.44-3.84,5.57-5.7,7.81-5.7a3.32,3.32,0,0,1,2.31.64c.57.64.89,1.34.44,6C339.33,70.37,336.39,71.65,332.93,74.59Z"/><path class="cls-1" d="M373.22,78.11c0,2.37-1.08,3.26-3.52,3.26-4.35,0-13.57,0-16.51-.06-.26,6.4,2.82,8.45,8.51,8.45a35.13,35.13,0,0,0,9.54-1.41c1,3.33.83,4,.13,4.67-1.28,1.28-5.25,2.76-11.2,2.76-9,0-15.56-4.42-15.56-14.85,0-11.27,6.21-16.9,15.43-16.9C368.42,64,373.22,67.93,373.22,78.11ZM365.29,77c.19-5-2.12-7.17-5.25-7.17-3.84,0-6.47,3.14-6.79,7.3Z"/><path class="cls-1" d="M392.41,90a17.1,17.1,0,0,0,5.83-1c1.08,3.07,1,3.78.06,4.61s-3.65,2.3-8.58,2.3c-7.55,0-13.18-4.54-13.18-15.55,0-12.16,6.27-16.32,13.7-16.32,4,0,6.84,1.34,7.93,2.43.77.71,1,1.35-.38,4.48a20.15,20.15,0,0,0-5.31-.83c-4.55,0-7.43,2.75-7.43,10.18S387.93,90,392.41,90Z"/><path class="cls-1" d="M422.88,76.57c0-4.48-1.22-6.08-4.16-6.08-2.69,0-5.32,1.92-7.56,4.1V95.46l-8,.32s.26-14.28.26-21.7c0-6.08-.19-17.73-.19-22.21,0-2,1.6-2.94,5.82-2.94,2,0,2.56.76,2.56,2.11,0,2.49-.25,13.05-.45,16.89l-.51,1.48.19.12c2.82-2.88,6.4-5.5,11.2-5.5,6.08,0,9.16,3.58,9.16,11.14,0,15.1-.26,17.15.25,20.29a35.48,35.48,0,0,1-5,.25,3.36,3.36,0,0,1-3.71-3.58C422.75,89.69,422.88,83.29,422.88,76.57Z"/><path class="cls-1" d="M434.6,70.05c-.51-3.78-.51-4.74.19-5.44.52-.52,1.22-.64,4.29-.52l.58-5c.25-2.24,3.26-3,4.8-3,1.79,0,2.69.52,2.69,2v6.14l7.29-.19c.45,3.65.32,4.93-.38,5.57-.51.57-2.05.51-7,.32L447,85.85c0,3.46,1.28,4.23,4,4.23a17.89,17.89,0,0,0,3-.51c.77,3.13.45,4-.25,4.73s-2.69,1.48-6.91,1.48c-4.68,0-8-1.92-7.94-7.49L439,69.92Z"/></g></g></svg>