<svg xmlns="http://www.w3.org/2000/svg" viewBox="0 0 424.15 333.77"><defs><style>.cls-1{fill:#005583;}.cls-2{fill:#fff;}</style></defs><title>Asset 1</title><g id="Layer_2" data-name="Layer 2"><g id="Layer_2-2" data-name="Layer 2"><path class="cls-1" d="M332.52,185a3.31,3.31,0,0,0-2.57-1.74,2.48,2.48,0,0,0-.38,0,3.39,3.39,0,0,0-.83-.16c0-.22-.05-.44-.08-.67a15.39,15.39,0,0,0-.33-2,10.61,10.61,0,0,0-.7-2,8.85,8.85,0,0,0-.58-4.71,3.43,3.43,0,0,0-.24-1.32,33.93,33.93,0,0,0-1.74-5.45,3.14,3.14,0,0,0-.49-.7l0-.07-.24-.71a2.92,2.92,0,0,0-1-1.4,4.89,4.89,0,0,0-.46-.74c-.09-.11-.19-.22-.29-.32a3.57,3.57,0,0,0-.49-.38,3,3,0,0,0-.49-.52,3.25,3.25,0,0,0-5,.94l-.8.11a10.32,10.32,0,0,0-2.62.53,21.92,21.92,0,0,0-2.07.72,20.81,20.81,0,0,1-2.1.71c-.75.15-1.53.33-2.32.51h0a12.06,12.06,0,0,0-4.27,1l-.85.18-1.59.18a6.3,6.3,0,0,0-3.19.13l-.1,0c-.71.24-1.49.49-2.38.76s-1.77.35-2.75.57l-.31.08c-.86.29-1.78.56-2.76.84s-1.92.57-2.92.89c-6.36,1.54-12.5,2.65-18.25,3.64-9.54,1.66-28.61,3.28-44,3.12h-.24a7,7,0,0,0-1.61.34,3.08,3.08,0,0,1-.3.09h-.37a296.76,296.76,0,0,1-38.54-1,4,4,0,0,0-2.61-1.12h-1.27c-.44-.1-.89-.18-1.37-.26a4,4,0,0,0-.6,0c-.38,0-.82,0-1.28,0s-1.15,0-1.79,0c-2.61-.24-5.2-.62-7.49-1l-2.19-.31a214.32,214.32,0,0,1-23-5.52l-.38-.08a4.08,4.08,0,0,0-1.44.05c-6.69-1.18-15.07-3.48-20.64-5l-1.21-.33a3,3,0,0,0-3.13,1,13.64,13.64,0,0,0-7.12,2.54,3,3,0,0,0-1.11,1.4,20.86,20.86,0,0,0-.83,2.78,9.47,9.47,0,0,0-1.13,2.11c-.16.35-.41.92-.55,1.16a3,3,0,0,0-.82,2.13,12.92,12.92,0,0,1-.76,3.13,2.67,2.67,0,0,0-.14.67,7.19,7.19,0,0,0-.24.78,3,3,0,0,0,0,1.31c0,.23-.13.55-.19.76a9.6,9.6,0,0,0-.39,2.15c-.18.46-.32.91-.44,1.3,0,.17-.11.37-.16.51a3.51,3.51,0,0,0-.33.64,3,3,0,0,0,1.11,3.53,2.77,2.77,0,0,0,.29.6c.07.14.15.28.23.42a3,3,0,0,0,1.42,1.16,1.63,1.63,0,0,0,.11.17,3,3,0,0,0,1.6,2.1,18.75,18.75,0,0,0,3.6,1.16l.11.07a7,7,0,0,0,2.1,1l0,0,4,1.08c5.12,1.4,10.42,2.85,14.63,3.87,5.57,1.42,17.62,4.28,27.57,6l.09,0a7.82,7.82,0,0,0,1,.07h.29l.2,0c7.23,1.07,15.06,2,21,2.59a16,16,0,0,0,3,.53c11.29.89,23.32,1.4,32.85,1.4l2.84,0A379.13,379.13,0,0,0,270,209.24h0c.49-.08.91-.18,1.28-.27a12,12,0,0,1,1.3-.25l.08,0a372.23,372.23,0,0,0,48.86-11.62,3.12,3.12,0,0,0,1.06-.61l.18-.15.52-.44a15,15,0,0,0,3.37-1.38,2.92,2.92,0,0,0,1.18-1.28,4.66,4.66,0,0,0,1.37-1.39l.09-.15a5.22,5.22,0,0,0,2.14-1.84,2.85,2.85,0,0,0,1-1.63A3.7,3.7,0,0,0,332.52,185Zm-89.92,8.77a3.59,3.59,0,0,1,0-.47l.34,0a3.59,3.59,0,0,1,0,.47ZM148,187.84a.73.73,0,0,1-.27.1l.06-.37a.74.74,0,0,1,.23.15A.5.5,0,0,1,148,187.84Zm-2.61-.85-.07.36a.74.74,0,0,1-.23-.15.5.5,0,0,1,0-.12.6.6,0,0,1,.28-.09,15.5,15.5,0,0,1,2.25.53l.09.42h0a15.37,15.37,0,0,1-2.26-.53Z"/><path class="cls-2" d="M138.19,176.91c.15,0,.23-.27.42-.27.32.17-.73,1.17-.16,1.17.25.05-.24,1.09-.57,1.69s.45-.48.37,0-1.41,3.58-1.62,4.25a11.84,11.84,0,0,1-.82,1.78c-.53,1.24-.93,2.51-1.47,3.75-.27.61-.57,1.19-.81,1.85-.47,1.25-1,2.57-1.39,3.83-.39,1-.59,2.4-1.53,2.74a4.22,4.22,0,0,1-1.12,0,5,5,0,0,0-.51.11,3.63,3.63,0,0,1-2.16-.87c-1.18-1.28-1-4-1.15-6.06a18.67,18.67,0,0,0-.07-2.47c0-1.81,0-12,.15-12.65a1.82,1.82,0,0,1,1-1.31c.4,0,.75-.27,1.24-.19a5.47,5.47,0,0,1,1.58.44,2.92,2.92,0,0,1,.73.16c.13,0,.18.15.33.14.62.31,1.28.62,1.36,1.31a70.71,70.71,0,0,0-.83,11c0,.68,0,2.61.08,3.13.63-1.25,2.79-6.44,3.41-8.13.16-.46.3-1,.51-1.49a26.92,26.92,0,0,1,1.22-2.87,11.45,11.45,0,0,1,.48-1.32c.15-.25.48-.26.7-.46A.81.81,0,0,1,138.19,176.91Z"/><path class="cls-2" d="M142.41,176.89c.44,0,1,.25.66.75.35.24.46-.13.83,0s.48.54,1,.49c.2.28.09.51,0,.88a2.07,2.07,0,0,1,.56.31c-.53,2.66-1.43,6.62-1.92,9.25-.07.16,0,.28,0,.42-.69,2.49-1.46,5.17-1.76,6.46-.21,1-.54,2.26-.66,3.37,0,.13-.14.15-.31.26,0,.21,0,.46-.09.55s-.31,0-.4-.14c-.12.26-.52,0-.65.27-.16,0-.05-.18-.23-.22s0,.17,0,.22a.77.77,0,0,0-.62.07c-.1-.3-.6-.29-.5-.62-.09.09-.36.07-.5,0a21.9,21.9,0,0,1,.11-6.15c.19-1.45.38-2.65.67-4.22.18-1.2.39-2.75.61-4.12.15-1,.22-2,.36-2.93.06-.73.54-2.72.52-3.4,0-.21-.19-.53,0-.82.15,0,.2.08.34.1.08-.23-.18-.35-.08-.51s.48-.05.76,0c.14-.15-.32-.2-.4-.36a2.31,2.31,0,0,1,.81.12c.07-.2-.41-.15-.34-.31a2,2,0,0,1,1.12.13C142.45,176.68,142.39,176.85,142.41,176.89Zm-4,17c.3,0,0-.52.25-.55a5.87,5.87,0,0,1-.2,1.9,17.56,17.56,0,0,0-.07,2.46.5.5,0,0,0,.17-.5c.21-1.37.24-4.43.42-4.4s0,.28.06.33a14.18,14.18,0,0,0,.27-2.14c.09-.06.08.82.16.8a7.35,7.35,0,0,0,.25-2.21c-.11.16-.17,1.35-.28,1.33a5.46,5.46,0,0,1,.25-2.18c.1,0,0,.42.09.51a2.51,2.51,0,0,0,.12-1.25c-.2,0,0,.6-.14.54-.24-1.52.57-4.76.3-4.67C139.67,186.16,138.23,193.83,138.41,193.86Zm1.54-6.17c0-.14.3-.86.09-.94A1.23,1.23,0,0,0,140,187.69Zm-.26,8.24a1.3,1.3,0,0,0,0-1A2.75,2.75,0,0,0,139.69,195.93Z"/><path class="cls-2" d="M158.29,180c0,.1.35.29.06.36-.54.27-.19.57-.44.6l-1.32.69a2.29,2.29,0,0,1-1.32.19c-.71-.1-1.32-.37-2.13-.49-.38,2.26-.85,5.59-1.25,8,1.69-.06,3,.77,4.89.68a1.16,1.16,0,0,1-.36.69A4.4,4.4,0,0,1,156,192c-.09.09-.24.14-.37.26s-.15.3-.31.34a2.78,2.78,0,0,1-.85.06c-.63,0-1.24-.39-1.82-.45-.4,0-.94-.17-1.34-.16a35.72,35.72,0,0,0-1,6.2c1.46.5,3.19.72,4.62,1.27.23.21-.43.08-.52.21a2.57,2.57,0,0,0,1.38.3c-.15.57-.34.86-.47,1.48a4.14,4.14,0,0,1-2.55.19c-.81-.15-1.91-.32-2.65-.43a10.14,10.14,0,0,0-3-.11,5.35,5.35,0,0,1-1.58-.57c-.09-.09,0-.18.07-.2a5.86,5.86,0,0,1-.62-.6c.28-.3-.1-.54-.13-.79a1.08,1.08,0,0,1,.3-.69c.1-.34-.09-.79.05-1.19a40.43,40.43,0,0,0,1-4.93c.27-1.64,1.43-9.33,1.53-10.82.11-1.11.2-1.62-.05-1.66s0-.46.36-.44a1.45,1.45,0,0,1-.16-.73c0-.17.13.27,1.44,0a8.18,8.18,0,0,1,2.37.2,24.22,24.22,0,0,1,3.31.54,15.81,15.81,0,0,0,3.45.43C158.77,179.67,158.34,180,158.29,180Z"/><path class="cls-2" d="M173,186.49a11.62,11.62,0,0,1-6.68,9.22c2.28,1.31,2.24,5.49,3.74,5.78.7.15,1.22-.29,1.64-.35s-.15.75-.29,1.05-.17.54-.31.81-.65.49-.76.9a3.91,3.91,0,0,1-3.9-.74c-1.15-1.18-1.52-4.65-2.4-5.31-.23,1.86-.32,4.22-.34,4.36s.08.6-.31.7a9.72,9.72,0,0,1-3.27,0,2.4,2.4,0,0,1-1.65-1.48,58.18,58.18,0,0,1,.74-8.4c.15-1.35.25-2.67.46-4,.11-.86.23-1.72.37-2.54.34-2,.44-3,.56-3.92-.07,0,.14-1.8.49-2a3.33,3.33,0,0,1,2.89-.05,11.71,11.71,0,0,1,3.45,0C172.24,181.51,173.2,184.37,173,186.49Zm-8.28,5.08c-.12.68-.18,1.45-.35,2.3a10.27,10.27,0,0,0,3.46-4.66c1.13-3,1.19-5.73-1.28-6C165.62,185.53,165.3,188.46,164.71,191.57Z"/><path class="cls-2" d="M182.14,182.44c4.58-.16,8.62-.12,11.07,2.54s1.68,5.92,1.48,7.68a17.42,17.42,0,0,1-3.11,8,11.64,11.64,0,0,1-5.14,4,11.44,11.44,0,0,1-3.37.64c-.1-.11.16-.13.17-.23s-.72.12-.79,0,.27-.08.24-.19c-.25-.16-.4-.13-.57-.39-.11,0-.09.27-.27.12-.12.1.2.4,0,.38s-.61.13-.77-.16.07-.45,0-.66-.19-.43-.21-.64a14.67,14.67,0,0,1,.14-3.16c.21-1.72.57-3.5.72-5.37a89.51,89.51,0,0,0,.41-10.24c-.12-.25-.46-.52-.43-.83-.06-.15,0-.18.05-.24-.27-.16-.33-.27-.32-.38s.25-.12.33-.21c-.14-.4-.67-.48-.17-1C181.79,182.34,182,182.22,182.14,182.44Zm5.58,7.78c-.29,4.43-.37,7.45-.94,11a1.54,1.54,0,0,0,.66-.51,14.25,14.25,0,0,0,2.17-4.84c1.12-4.77,1.16-9.38-1.76-10C187.77,187.16,187.8,188.94,187.72,190.22Z"/><path class="cls-2" d="M207,183.52c.42.08.14.39.35.46s.24,0,.42,0-.36.24-.22.31c.36.08.57.25.11.25.52.25-.05.52.23.8.67.11-.29.24-.47.37a10,10,0,0,1-2.74.43,15.12,15.12,0,0,0-2.13-.06,42.87,42.87,0,0,1,0,7.43c1.53-.2,2.75-.17,4.24-.28.4-.06.07.21.14.32s.18-.14.4-.07c.43.15,0,.42.2.67s-.37.34.14.55c.32.22-.3.21-.59.31,0,.17.18.1.18.24a2.77,2.77,0,0,1-.92.51,4.82,4.82,0,0,1-1.86.3c-.69,0-1.38-.1-2.07-.09-.17,2.12-.17,4.44-.16,6.8,1,.17,2.14.16,3.21.26a7.24,7.24,0,0,0,1.92.28c.48-.21.4.56.28.8.44.21.54,1.26.09,1.25s.07.62-.34.44a7,7,0,0,1-1.9.32c-3-.17-6.4.48-8.4-.68,0-.31-.57-.51-.2-.63s0-.66,0-1.05a27.84,27.84,0,0,1,.24-3.11c.09-3.06.17-6.13.27-9.19a33.12,33.12,0,0,0,.18-5.31c-.57,0-.74-.31-.13-.38.16-.28-1-.53-.5-.65s-.41-.54-.11-.77c0,0,.18-.13.19-.24s-.32,0-.14-.21.18-.06.36-.12,0-.42.62-.39c.35,0,1.37.15,2.15.22a15.37,15.37,0,0,0,2.3-.27A18.37,18.37,0,0,1,207,183.52Zm-7.44,22.23c-.23-.08-1.84-.66-2.11-.5C197.66,205.33,199.35,205.91,199.55,205.75Z"/><path class="cls-2" d="M227,183.57c.34-.15.64.16,1.07.28a3.64,3.64,0,0,1,.56.05c.22.1.41.44.72.36.08.17,0,.31.19.37a9.58,9.58,0,0,0,.06,1.42c-.1.39-.51.75-.46,1.2a35.68,35.68,0,0,0-2.19,4.27c-1.35,3.13-1.72,4.22-2.69,6.6-1.56,3.68-2,4.14-2.14,4.94,1.41.08,3.07-.2,4.48-.14a5.1,5.1,0,0,0,1.26.07,8.55,8.55,0,0,0,1.53-.58c-.06.42,1.14.8.23,1.21-.32.5.68,1.3-.2,1.81-.61.58-2.11.42-3.48.6-.59.08-1.19.1-2,.15-1.23.1-2.5,0-3.47,0l-1.45,0a1.48,1.48,0,0,1-.86-.09,3.11,3.11,0,0,1-1.54-2.87c0-.14.07-.25.11-.39a28.33,28.33,0,0,1,1.83-5.35c.54-1.19,1.17-2.72,1.45-3.28.71-1.47,2-4,2.65-5.36.34-.73.79-1.57,1.16-2.52-1.18,0-2.38-.09-3.63,0-.53,0-1.88.37-2.06.06-.07-.14.75-.22.6-.29a5.58,5.58,0,0,1-1.1-.33c-.11-.07-.18-.21-.28-.31a1,1,0,0,0-.4-.21c.14-.11.36,0,.57,0s-.21-.25-.32-.35c.07-.14.21,0,.35,0s-.35-.24-.28-.35a4,4,0,0,0,.67,0c0-.2-.14-.2-.29-.27.46-.07.46-.28,1-.36,2.5-.34,4.23-.23,6.66-.47C226,183.36,226.63,183.24,227,183.57Zm-6.43,22.26a6.12,6.12,0,0,0-2.08-.05A6.56,6.56,0,0,0,220.57,205.83Zm1.6-14c.14-.48-.17.28-.21.11s.27-.63.41-1.08a.63.63,0,0,0-.35.46,4.84,4.84,0,0,0-.94,1.82c-.18.42-.32.66-.46,1a5.38,5.38,0,0,0-.63,1.67,11.94,11.94,0,0,0,1.48-2.65s-.21.17-.21.14a5.51,5.51,0,0,1,.63-1.12c.26.16-.1.48-.13.8.11.1.46-.6.7-1s.71-.91.69-1.61C222.62,190.76,222.32,192,222.17,191.81Zm-.11,13.82c-.41,0-1.12,0-1.19.19a10.77,10.77,0,0,0,2.35.2c.56-.11-.3-.1-.34-.16.18-.25,1,0,1.19-.27A9.9,9.9,0,0,0,222.06,205.63Zm1.09-15.5c.1,0,.69-1.2.54-1.26A2,2,0,0,0,223.15,190.13Zm1.52,15.65c-.08.07-.6,0-.59.19s2.23-.19,2.07-.33c-1.26.07-1.64-.17-1.67,0S224.66,205.61,224.67,205.78Zm.43-.39c.41,0,.6.05.93,0,.53,0,.71-.19,0-.17C225.58,205.31,225.24,205,225.1,205.39Zm1.87.26c.49,0,1.64,0,1.56-.19-.49-.15-1,.07-1.64,0C226.67,205.49,226.64,205.7,227,205.65Z"/><path class="cls-2" d="M241.1,182.93c.16.23.28.47.43.66s.38.36.54.56a14.25,14.25,0,0,1,1.06,1.91,21.82,21.82,0,0,1,1.88,7.13,26,26,0,0,1-.11,5.54,12.67,12.67,0,0,1-1.33,4.24,4.39,4.39,0,0,1-.65.8c-.48.59-.76.89-1.21,1.44-1.29.32-.49.59-2.24.69-.82,0-2.55-.17-2.07-.4-.31-.26-.66-.38-.93-.61-.14.11.2.23.13.3s-.23-.06-.3,0,.42.26.39.4a3.49,3.49,0,0,1-1-.54c-.31-.19,0,.11-.07.11s-.62-.42-.69-.31c.09.3.85.51,1.08.71a1.91,1.91,0,0,1-.75-.17,9.09,9.09,0,0,1-2.83-2.59c-.66-.77.11-.07.06-.31a15.33,15.33,0,0,1-1.7-7.4,27.73,27.73,0,0,1,.2-3.27A17.16,17.16,0,0,1,232.2,187a13.1,13.1,0,0,1,1-1.65,4.47,4.47,0,0,1,1.17-1.44c0-.11,0-.25.06-.35.75-.42,1.56.13,2.28.3a8.47,8.47,0,0,1,1.7.56c.24.51.84.44,1.21.76.09.24.27.33.15.58.12.31.38.36.54.63a3.61,3.61,0,0,1-1,1.07,12.6,12.6,0,0,0-1.81,2.75c-1,2-1.37,4.17-1,7.66a6.66,6.66,0,0,0,1.29,3.41,2.21,2.21,0,0,0,1.73,1.08c.89,0,1-.55,1.46-.85a10.15,10.15,0,0,0,1.68-4.77,19.45,19.45,0,0,0-1-8.88,15.18,15.18,0,0,0-1.77-3.71c-.22-.27-.44-.55-.65-.83s-.64-.62-.65-.82c-.06-.38.39-.44.71-.47.1-.11-.19-.23-.13-.3C239.88,181.48,240.75,182.46,241.1,182.93Zm-5.31,21.71c-.34,0-.22.08,0,.18s.6,0,.33-.12a6.74,6.74,0,0,0-1-.68C234.87,204.1,235.56,204.45,235.79,204.64Z"/><path class="cls-2" d="M252,183a4.46,4.46,0,0,1,.65,1.19,93,93,0,0,0,4.22,8.48c.21-.44.91-2.85,1.4-4.37.3-.9.64-2.09,1.07-3.32-.28-.95-.5-1.69-.65-2.34a3.17,3.17,0,0,1-.07-1c.13-.74,2.25-.87,2.86-.53,1.86,1,2.7,2.86,3.24,5.2,1,4.14,1.69,9.9,2.75,13.89-.15.23,0,.49,0,.74a5.07,5.07,0,0,1-.45,1.21c-.4.72-1.09.63-1.26.75s-.65.25-1,.47c-.14.08-.23.23-.37.32a4.53,4.53,0,0,1-1.61.39c-1.29-1.11-1.54-3.38-2.05-6.61-.26-1.68-.53-4.51-.72-5.89-.21.41-1.07,3.26-1.31,4.12-.08.32.44,1,.51,1.38s-.33.73-.39,1.15c-.22.06-.3.35-.47.47a2.35,2.35,0,0,1-.43.19c-.14.08-.19.23-.3.27a2.78,2.78,0,0,1-.65.14,3.78,3.78,0,0,1-1.56.36,2.07,2.07,0,0,1-2-1.2c-.61-1.13-1.22-2.26-1.82-3.39-.12,1.89.19,4.13.16,6.36a7.8,7.8,0,0,1-.26,2.11c-.06.22-.2.72-.38.83-.27.31-.77.14-1,.47-.64-.09-1.46.36-2.06.38a37,37,0,0,1,0-4.35c0-2.68-.38-8.43-.48-11,0-.55-.14-3-.26-3.59a7.85,7.85,0,0,0-1.1-3.12c.62-1.23,2-1.24,3.35-1.11A4.61,4.61,0,0,1,252,183Z"/><path class="cls-2" d="M270.41,180c1.91-.43,4.86-1.5,6.41-.69.07,0,.1-.09.2-.11.19.32.53.41.74.62-.05.12.12.3.06.56,0,.11.14,0,.12.12a.85.85,0,0,1-.33.4c0,.18.15,0,.14.23a2,2,0,0,1-.64.24c0,.21-.33.22-.38.37-1.4.25-2.44.3-3.73.56.23,2.1.78,3.88,1,5.64a12.29,12.29,0,0,1,3.22-.2c0,.17-.25,0-.27.15a3.75,3.75,0,0,1,1,.37c0,.07,0,.18,0,.28.24.14.6.12.69.46l-.32,0c0,.35.27.34,0,.52-.05.15.2.15.11.23a7,7,0,0,1-1.22.43,2.17,2.17,0,0,1-.37.27c-.59.2-2,.15-2.51.41a7.6,7.6,0,0,1,.43,2.71c.17,1.65.67,4.11.67,5.4,1.36-.16,1.89-.41,3.32-.6s1.94-1,2-.49a6.87,6.87,0,0,1,0,1.2.51.51,0,0,1-.16.2c-.06.57-.54.89-.89,1.26-.14.09-.19,0-.2.21a13.22,13.22,0,0,1-2,.65c-.72.21-1.4.49-2.12.73a10.39,10.39,0,0,1-2.75.32c0-.25.46-.27.6-.29-.53-.32-1.91.08-1.84-.28.3-.25.44-.06,1-.24-.14-.22-.34,0-.54-.13a1,1,0,0,1-.29-.21c-.39-.33-1-.64-1.2-1.06a4.62,4.62,0,0,1-.47-1.9l-.36-2.72c-.44-3.86-.69-7.12-1.32-10.26a30.76,30.76,0,0,0-1-4.94c.19.08.14-.09.19-.2A3.9,3.9,0,0,1,270.41,180Z"/><path class="cls-2" d="M291.25,177.39a3.81,3.81,0,0,1,1.46,1.17,7.14,7.14,0,0,1,1.37,4.75c-.31,4-3.51,6.93-5.65,8.15,1.5.69,5.14,3.93,5.69,4.39.27.23.73,0,.9-.07.64-.4.34-1.37.86-1.23s1.27,3.4-.8,4.12a3,3,0,0,1-2.21-.22,35.59,35.59,0,0,1-5.21-4c.06.55.22,1.23.35,2,.19,1.06.44,1.41.46,1.75.06.56-.33.91-.48,1.36-.28.12-.44.11-.56.27s-.09-.09-.13-.12a1.84,1.84,0,0,0-.43.39c-.79,0-1.33.44-2,0a1,1,0,0,1-1.36,0c-.12-.3,0-.7-.19-1.38-.26-1.12-.64-3-.82-4.12q-.93-5.62-1.84-11.26a9.88,9.88,0,0,0-.71-3.19c-.25,0,0-.42-.16-.54.31-.09-.11-.93-.09-1.25,0-.11.19.07.25,0a4.71,4.71,0,0,1,1.93-.5c.81-.1,1.54-.23,2.27-.39C287.94,176.83,289.67,176.7,291.25,177.39Zm-4.55,12c1.42-1.2,3-3.18,2.94-5.54a4.23,4.23,0,0,0-2-3.75,4.19,4.19,0,0,0-2.63-.34C285.43,182.83,286.14,186.44,286.7,189.41Z"/><path class="cls-2" d="M298.47,174.94a3.47,3.47,0,0,1,1.63.5c.22.17.19.36.31.44.4.16.42,1.25.61,1.78,1,2.51,1.24,6.41,2,9.11a19.27,19.27,0,0,1,.6,2.08c0,.11-.16.14-.18.21.41.66-.28.81-.08,1.37-.27.16-.37.36-.74.41s-.31-.22-.53-.17-.34.71-2.53.67c-.31,0-.74-.67-.88-1a6.73,6.73,0,0,1-.54-1.73c-.26-.87-.76-3-.9-3.86-.42-2.64-.31-5.1-1.37-7.44a2.65,2.65,0,0,0-.78-1c-.24-.1-.3-.26-.13-.47a3.12,3.12,0,0,1,1.17-.84A4.74,4.74,0,0,1,298.47,174.94Zm6.1,18c.06.3.52.13.62.43s-.14.56-.1.91.1.47.06.66-.07.19-.09.27a4.21,4.21,0,0,1-.06.93.79.79,0,0,0-.36.47c-.14.07-.18-.1-.26-.12s-.09.12,0,.18c-.44.07-.79.42-1.06.23.13.22-.06.62-.37.43a.21.21,0,0,0-.1.24c-.36-.25-.9-.1-1.21-.32a1.2,1.2,0,0,0-.74-.62c-.17-.25-.47-.61-.65-.9a4.24,4.24,0,0,1-.57-1.15.92.92,0,0,0-.48-.68c.1-.06.22-.23.09-.31C300.59,192.44,303.05,192.49,304.57,193Zm-6.8-8.18c.17-.11-.12-1-.21-1.41C297.52,183.75,297.51,184.57,297.77,184.8Zm1.06,4.07a.54.54,0,0,0-.15-.57c-.15-.36-.38-2.58-.76-2.79A16.55,16.55,0,0,0,298.83,188.87Zm.79,1.61a7.89,7.89,0,0,0-.41-1.44c-.08,0-.08,0-.12,0A1.74,1.74,0,0,0,299.62,190.48Zm2.09-6.54c.36-.4-.12-1.26-.18-1.88s-.47-1-.29-.47C301.31,182.25,301.65,183.31,301.71,183.94Z"/><path class="cls-2" d="M117.64,182.21a.42.42,0,0,1,0-.12,4.35,4.35,0,0,0-.44-1.35,4.45,4.45,0,0,0-.36-.66,4.39,4.39,0,0,0-1.8-1.56s-.07,0-.12,0l-.35-.13a3.74,3.74,0,0,0-.63-.17,4.41,4.41,0,0,0-2.38.16s-.06.05-.11.06l-.16.08a4.45,4.45,0,0,0-1.72,1.22l-.07.11a4.09,4.09,0,0,0-.57,1.06,4.45,4.45,0,0,0-.4,2.19.42.42,0,0,1,0,.12,4.86,4.86,0,0,0,1.07,2.32s.06,0,.1,0,.1.12.17.15l0,0,.21.21s0,0,.06.09,0,0-.07.05a1.36,1.36,0,0,0,.3.23c.07.08.08.12.15.17a5,5,0,0,0,1.69.69,4.42,4.42,0,0,0,2.38-.16.33.33,0,0,1,.1-.06,4.67,4.67,0,0,0,1.43-1c.06,0,.09,0,.13-.07a5.45,5.45,0,0,0,.91-1.31A4.59,4.59,0,0,0,117.64,182.21Zm-.93-1-.06-.12Zm-1-1.46h0l0,0s0,0,0,0l-.22-.19Zm-.83-.68h0l.11.06s-.13-.05-.14,0h0l-.18-.08.12,0s-.13,0-.13-.07A.82.82,0,0,1,114.83,179.11Zm-.26-.09a.48.48,0,0,1-.23-.07S114.54,179,114.57,179Zm-2.19-.21a0,0,0,0,0,0,0h0S112.36,178.81,112.38,178.81Zm-.63.15.09,0h0l.49-.15a.11.11,0,0,0,0,.06,3.1,3.1,0,0,0-.45.13s-.22.06-.42.14C111.57,179.07,111.66,179,111.75,179Zm-.25.11-.09.05Zm-.25.18s.15-.1.2-.07a4.45,4.45,0,0,0-.59.33l0,0S111,179.38,111.25,179.25Zm-1.38,1.17s0,0,0,0h0S109.86,180.43,109.87,180.42Zm0,0,0,0a3.14,3.14,0,0,0-.39.73A2.56,2.56,0,0,1,109.83,180.46Zm.62,4.94h0l0,0a.05.05,0,0,1,0,0h0s.06.06.07.05l-.06-.06h0a.22.22,0,0,0-.1-.09l-.14-.18h0a.67.67,0,0,0,.14.15s-.09-.1-.11-.15h0a.31.31,0,0,0,.14.12h0a2.49,2.49,0,0,0,.23.23s0,0-.05,0a1.24,1.24,0,0,0,.26.2s0,.08.08.11l0,0A3.28,3.28,0,0,1,110.45,185.4Zm3.33,1h.06l.1,0-.16,0Zm3.13-3.79a.49.49,0,0,0,0-.12.5.5,0,0,0,0,.12Zm.12.18v-.19a.92.92,0,0,1,0,.18Z"/><path class="cls-2" d="M321.19,182.21s0-.07,0-.12a4.07,4.07,0,0,0-.43-1.35,4.43,4.43,0,0,0-2.16-2.22s-.07,0-.12,0l-.35-.13a3.74,3.74,0,0,0-.63-.17,4.41,4.41,0,0,0-2.38.16s-.06.05-.11.06l-.16.08a4.45,4.45,0,0,0-1.72,1.22l-.07.11a4.09,4.09,0,0,0-.57,1.06,4.45,4.45,0,0,0-.4,2.19.42.42,0,0,1,0,.12,4.86,4.86,0,0,0,1.07,2.32s.06,0,.1,0,.1.12.17.15l0,0,.21.21s0,0,.06.09,0,0-.07.05a1.36,1.36,0,0,0,.3.23c.07.08.08.12.15.17a5,5,0,0,0,1.69.69,4.42,4.42,0,0,0,2.38-.16.33.33,0,0,1,.1-.06,4.67,4.67,0,0,0,1.43-1c.06,0,.09,0,.13-.07a5.45,5.45,0,0,0,.91-1.31A4.59,4.59,0,0,0,321.19,182.21Zm-.93-1-.06-.12Zm-1.05-1.46h0l.05,0s0,0,0,0l-.22-.19Zm-.83-.68h0l.11.06s-.13-.05-.14,0h0l-.18-.08.12,0s-.13,0-.13-.07A.82.82,0,0,1,318.38,179.11Zm-.26-.09a.48.48,0,0,1-.23-.07S318.09,179,318.12,179Zm-2.19-.21a0,0,0,0,0,0,0h0S315.91,178.81,315.93,178.81Zm-.63.15.08,0h0l.49-.15a.11.11,0,0,0,0,.06,3.1,3.1,0,0,0-.45.13s-.23.06-.42.14Zm-.25.11-.1.05Zm-.25.18s.15-.1.2-.07a4.45,4.45,0,0,0-.59.33l0,0S314.56,179.38,314.8,179.25Zm-1.38,1.17s0,0,0,0h0S313.41,180.43,313.42,180.42Zm0,0,0,0a3.14,3.14,0,0,0-.39.73A2.56,2.56,0,0,1,313.38,180.46Zm.62,4.94h0l0,0a.05.05,0,0,1,0,0h0s.06.06.07.05l-.06-.06h0a.22.22,0,0,0-.1-.09l-.14-.18h0a.67.67,0,0,0,.14.15s-.09-.1-.11-.15h0a.31.31,0,0,0,.14.12h0a2.49,2.49,0,0,0,.23.23s0,0-.05,0a1.24,1.24,0,0,0,.26.2s.05.08.08.11l0,0A3.28,3.28,0,0,1,314,185.4Zm3.33,1h.06l.1,0-.16,0Zm3.13-3.79a.24.24,0,0,0,0-.12l0,.12Zm.12.18v-.19a.92.92,0,0,1,0,.18Z"/><path class="cls-1" d="M206.45,214.18a1.32,1.32,0,0,0-.61,1.29l0,.1c.52-.11,1-.21,1.55-.35C207.45,214.69,207.25,214.24,206.45,214.18Z"/><polygon class="cls-1" points="70.44 62.03 70.44 77.61 88.02 77.61 88.02 143.93 111.42 143.93 111.42 77.61 129 77.61 129 54.21 70.44 54.21 70.44 62.03"/><polygon class="cls-1" points="326.94 54.32 326.94 91.59 310.49 54.65 310.49 54.32 287.08 54.32 287.08 143.93 310.49 143.93 310.49 108.83 326.94 143.93 350.23 143.93 350.34 143.93 350.34 54.32 326.94 54.32"/><path class="cls-1" d="M202.07,108.72h.27l.1-54.41H140.16v89.61h23.39V116.48l.28,0,13.45,27.5h26l-15.76-32.28ZM179,93.09H163.55V77.75H179Z"/><path class="cls-1" d="M424.15,62.06l-38.77-7.82v.08H362v89.61h23.4l38.5-7.77h.27Zm-23.32,58.47H385.38V77.64h15.45Z"/><path class="cls-1" d="M213.9,54.32v89.61h23.39V117.19h15.48v26.74h23.4V54.32Zm38.87,39.47H237.29V77.72h15.48Z"/><polygon class="cls-1" points="63.84 92.76 24.58 84.94 24.58 77.28 59.76 77.28 59.76 53.88 1.17 61.7 1.17 108.31 38.57 108.34 38.72 120.2 1.43 127.96 1.17 127.96 1.17 143.6 56.02 143.72 63.92 108.73 63.84 92.76"/><path class="cls-1" d="M165.52,3.22c.55,0,.4-.12,1.41-.21-.12.58.49.68.31,1.23,0,.12,0,.23,0,.35-.15.4-.12.62-.46,1s-.26.61-.52.86c-1.49.22-3.87.43-5.56.58a4.94,4.94,0,0,0,.08,2c.15.91.08,1.92.23,2.86.16,1.52-.19-.07,0,1.45,1.92-.4,4.37,0,5.63-1a2.33,2.33,0,0,0,0,1.5l.07.22c.05.07.19.1.24.13.07.22-.31.53-.06.74-.41,0-.25.29-.41.42-.31.15-.6.33-.66.64a35,35,0,0,1-4.7.85,63.45,63.45,0,0,0,.54,7.26c.21,1.44.88,2.75,0,3.81l0,.34c-.54-.09-.76.35-1,.49a1.52,1.52,0,0,0-1.69.28c-.22-.05-1.13.1-1.23,0-.32-.46-1.1,0-1,.21-.21.06-.32-.08-.57,0a3.65,3.65,0,0,0-.78-2.29c.06-.62.6.54.49,0-.31-2.51-1.13-8.62-1.31-11.53-.08-1.41-.35-2.81-.47-4.18-.35-2.38-.3-1.64-.57-3.81a4,4,0,0,0-.73-2.1c.28,0,.42,0,.6,0a2,2,0,0,1-.59-.66,2.86,2.86,0,0,0,1.07,0c0-.08-.19,0-.29-.08,3.45-.28,6.4-1.73,9.74-1.38C164,3.07,164.92,3.24,165.52,3.22Z"/><path class="cls-1" d="M173.51,2.46c2.51-.4,6.47-1.38,8.39-.35.09,0,.13-.08.27-.09.21.37.63.49.88.75-.09.12.11.33,0,.61,0,.12.19,0,.15.14a1.23,1.23,0,0,1-.48.42c0,.19.19.06.15.26a2.79,2.79,0,0,1-.86.2c-.08.24-.44.22-.53.38-1.82.16-3.16.14-4.84.35.08,2.33.6,4.32.7,6.27a16.5,16.5,0,0,1,4,0c0,.19-.32,0-.35.14a5.06,5.06,0,0,1,1.16.49c0,.08,0,.2,0,.31.28.18.73.19.8.56l-.4,0c-.07.39.29.4-.06.58-.08.16.24.17.11.26a10.63,10.63,0,0,1-1.55.37,2.83,2.83,0,0,1-.48.26c-.75.17-2.43,0-3.13.27a7.5,7.5,0,0,1,.27,3c.05,1.83.43,4.57.32,6,1.63-.08,2.27-.32,4-.4s2.42-1,2.45-.35a5.84,5.84,0,0,1-.14,1.31.5.5,0,0,1-.2.21c-.14.62-.74.93-1.19,1.3-.17.09-.22,0-.25.21a17.31,17.31,0,0,1-2.42.55c-.87.18-1.68.43-2.55.65a12.67,12.67,0,0,1-3.23.18c.07-.27.55-.27.72-.29-.6-.37-2.24,0-2.14-.39.37-.26.52-.05,1.17-.22-.15-.25-.4,0-.63-.17a1,1,0,0,1-.33-.24c-.43-.39-1.12-.75-1.34-1.23a4.6,4.6,0,0,1-.46-2.11l-.27-3c-.3-4.28-.39-7.88-1-11.36a29.45,29.45,0,0,0-1-5.48c.24.1.18-.09.26-.21A5.78,5.78,0,0,1,173.51,2.46Z"/><path class="cls-1" d="M197.24.33c.43.33,1.21.42,1.46.91.88,1.74,1,4.3,1.18,6.17,0,.38-.62.51-.93.86a3.48,3.48,0,0,0-1.7.82c-.32-.1-.4.24-.58.33s-.32-.22-.36,0c-.87-.23-1.17-.87-1.48-2a7.94,7.94,0,0,1-.16-1.79c-.07-.5-.13-1-.14-1.3a4.43,4.43,0,0,0-1.74,2.21,2.48,2.48,0,0,0,.52,2.7c1.67,2.07,3.49,3.81,4.93,5.41s3.61,4.48,2.14,6A5.69,5.69,0,0,1,198.85,24a5.74,5.74,0,0,1-1.41,1.38c-.3.16-.73.22-1,.38a12,12,0,0,1-2.87.46,7.49,7.49,0,0,1-4-.73,4.73,4.73,0,0,1-2.33-2.48,6.44,6.44,0,0,1-.67-1.65c-.45-1.58.28-2.77.43-4.16.6-.49,1.18.32,1.87-.14.73.27,1.06.75,1.42,1.69s.8,1.76,1.29,2.73c.55,1.36,1.42,2.27,2.29,2.05,1.22-.32,1.26-1.66,1.13-2.54-.23-1.59-2-3.78-3.65-5.39-3.66-3.5-5.57-5.53-5.74-7.86A4.6,4.6,0,0,1,186.71,4a12.22,12.22,0,0,1,3.13-2.73c.77-.38,2.27.05,2.91,0,.29.37.85.46,1.27.64.19.11.29.45.48.56.36-.32-.05-1.5.26-1.62.46-.21.58-.6,1.18-.7C196.31.1,196.87.46,197.24.33Z"/><path class="cls-1" d="M219.16.42s.14.19.14.19c0,.27-.24.38-.19.65s.18.35.17.58c0,.61-.42,1-.62,1.63a20.55,20.55,0,0,1-3.94.47c-.51.92-.58,12.16-.59,16.67a11.12,11.12,0,0,0,.43,3.6c-.05.19-.13,0-.31.11s0,.23-.13.3-.18-.07-.18,0,0,.11-.09.19a1.7,1.7,0,0,1-1.27.49c0,.12-.08.39-.39.39.05.15.13.19.13.34a8.63,8.63,0,0,1-2,.05c-.4-.08-.66-.31-1.1-.38a4.2,4.2,0,0,1-1.58-.44c0-.27-.22-.31-.4-.42.13-.19.13-.23,0-.38,0-2,0-4.93,0-7.08S207,6.88,207,3.75c-1.48-.29-2.92.69-4.55-.23-.05-.19.18-.24.32-.28a3.69,3.69,0,0,0-.75-.63c.09-.12.23,0,.32,0-.23-.26-.51-.48-.33-.6.28.11.46.26.46.1A.83.83,0,0,1,202.06,1a1.17,1.17,0,0,0,.41.11A33.24,33.24,0,0,1,206,.43c3.78-.21,8.07,1,11.72,0,.13,0,.13.12.36.08.33-.19.65-.37,1-.56C219.31,0,219.12.23,219.16.42Z"/><path class="cls-1" d="M223.92.43c.55-.1,1.38.11,1,.71.51.21.56-.21,1.07-.12s.72.51,1.37.38c.31.28.21.54.2,1a2.54,2.54,0,0,1,.77.26c-.18,3-.6,7.44-.73,10.38-.05.19.08.31.07.46-.4,2.82-.85,5.86-1,7.31a35.84,35.84,0,0,0-.2,3.79c0,.15-.14.18-.32.33,0,.23.08.5,0,.61s-.35,0-.48-.09c-.1.3-.62.06-.71.4-.18,0-.09-.19-.3-.2s0,.2.08.24A1,1,0,0,0,224,26c-.16-.31-.74-.21-.68-.59a.72.72,0,0,1-.57.1c-.84-2-.88-4.49-1.06-6.71-.06-1.61-.08-3,0-4.71,0-1.34-.08-3.06-.1-4.59,0-1.11-.14-2.22-.17-3.25-.08-.81.1-3.06-.07-3.79,0-.23-.36-.54-.21-.88.18,0,.27,0,.46,0,0-.26-.32-.35-.22-.53s.6-.15,1-.18c.14-.19-.46-.16-.6-.32a3.43,3.43,0,0,1,1.06,0c.06-.23-.55-.09-.5-.28a3.18,3.18,0,0,1,1.48,0C223.92.2,223.87.39,223.92.43ZM222.37,19.6c.36,0-.08-.58.19-.65.09,0,.31,2.26.14,2.11a15.67,15.67,0,0,0,.38,2.68.54.54,0,0,0,.1-.57c0-1.53-.56-4.87-.34-4.87s0,.31.13.35-.1-1.64-.08-2.37c.09-.08.24.88.33.85a6.89,6.89,0,0,0-.12-2.45c-.09.19.06,1.49-.08,1.49a5.76,5.76,0,0,1-.13-2.42c.14,0,0,.46.22.54a2.4,2.4,0,0,0-.11-1.37c-.22.07.12.65-.06.61-.59-1.62-.25-5.29-.57-5.14C222.37,11,222.15,19.59,222.37,19.6Zm.64-7c0-.15.2-1-.07-1A1.23,1.23,0,0,0,223,12.61Zm1.26,9c0-.31.07-.84-.15-1A2.88,2.88,0,0,0,224.27,21.63Z"/><path class="cls-1" d="M247.16,2.06c.41.76.19,3.81-.52,7.36-.22,1.13-.72,3.09-1,4.38a46.74,46.74,0,0,1-2.17,6.82c-.2.45-.54.85-.75,1.29a9,9,0,0,1-.9,1.71c-.72.87-1.27,1.95-2,2.94a4.67,4.67,0,0,1-1.86.24c-.12,0-.59-.3-1.49-1.49a23.67,23.67,0,0,1-2.84-6.11c-.12-.39-.4-1.21-.56-1.6A60.59,60.59,0,0,1,231,8.53a25.7,25.7,0,0,1,.05-5c.06-.49.27-.94.33-1.4s0-.8.31-1,.42,0,.84,0c.23-.07.37-.22.56-.21a4.64,4.64,0,0,1,1.28.17,2.7,2.7,0,0,1,.79,0,10.17,10.17,0,0,1,1.19.36c.18.09.3.28.63.22a1.44,1.44,0,0,0,1,.55c.35.4,1.2.76,1.31,1.26a4.24,4.24,0,0,1-.11,1.1c-.11,1.34-.1,2.76-.08,4a39.18,39.18,0,0,0,.5,4.89,49.23,49.23,0,0,0,1.51,5.57,42.81,42.81,0,0,0,2-7.35,51.48,51.48,0,0,0,1-5.91A19.31,19.31,0,0,1,244.67,2c.16-.29-.17-.93.41-.58.5,0,.68-.5,1,0C246.55,1.59,247,1.74,247.16,2.06Z"/><path class="cls-1" d="M258.42,3.49c.31.65.57,1.36.87,2.08a17.13,17.13,0,0,1,.57,2.13,22.33,22.33,0,0,1,.23,2.79c.09,2.24.23,4.45.39,6.88,0,.51.21,1.06.29,1.61a24.8,24.8,0,0,0,.27,2.91c.22,1.79,1,3.91.66,5.57-.28.12-.55.21-.63.47a1.34,1.34,0,0,0-1.24.52c-.56-.09-.87-.47-1.34-.63-.14,0,.07.2-.07.26a9.12,9.12,0,0,0-1.13-.61c-.14.1-.11.22-.37.19s-.07-.23-.27-.41-.41-.34-.56-.55a14.1,14.1,0,0,1-.21-2.44c-1.84-.21-3.85-.54-5.82-.78a10.71,10.71,0,0,1-.82,2.43,2,2,0,0,1-1,.95,3.66,3.66,0,0,1-2.25.22c-.22,0,.14-.18.11-.34s-.26,0-.25-.25c.64-.29,1.47-2.61,1.87-3.77C250,16,250.9,11.24,252.61,6.16a6.84,6.84,0,0,0,.57-1.41c.15-.64,0-1.27.43-1.73a3.81,3.81,0,0,1,1.73-.77,4.85,4.85,0,0,1,2,.1A4.74,4.74,0,0,1,258.42,3.49ZM250.93,21a31.68,31.68,0,0,1,4.17.17c-.4-3.42-.85-8.49-1.15-9.78C252.82,14.39,252,17.85,250.93,21Z"/><path class="cls-1" d="M274.29,7.39c0,.22-.2.43-.23.7-.23.66-.24,1.47-.43,2.26a18.13,18.13,0,0,0-.22,3.44c-.39,3.76-.67,8-1.34,11.81,2.21.44,5.27.25,6.44,1.43,0,.26-.34.53-.05.68,0,.24.24.77-.1,1-1,.86-2.06,1.06-3.81.94-2.32-.2-4.95-.66-7.22-.89a13.79,13.79,0,0,1-1.65-.19c.23-.52-.43-.52-.21-.91a2.55,2.55,0,0,1-1-.7c0-.23,0-.46.24-.55,0-.19-.16-.17-.14-.32s.15-.18.16-.29a2.6,2.6,0,0,1,0-.88A34.42,34.42,0,0,0,266,18c.26-3.82.49-7.83.86-11.56.1-.49.58-1.86-.11-2.28,1.2-.76,3.09-.57,4.79,0S274.57,5.57,274.29,7.39Z"/><path class="cls-1" d="M82.06,29.89c-.14-.27.16-.83,1-.87.29-.38-.32-.22-.19-.54s.74-.64.54-.94A4.15,4.15,0,0,1,84.88,27a1.64,1.64,0,0,1,.36-.55C90,25,98.31,22.84,104.68,21.26c.44-.08.7-.24,1-.33,7.1-1.59,16-3.26,20.69-4.13,4-.77,9.27-1.64,14.13-2.55a6,6,0,0,1,1.57,0,17.85,17.85,0,0,1,2.64-.42c-.11.14.33.29-.12.49,1.4-.13.62.5,2.21.36.25.13-.83.2-.73.41a1.78,1.78,0,0,0,1-.24c.09.17.26.5,1.23.54-1.33.37-.52.84-2.3,1,.56,0,.89.28.79.48-8.45,2-17.79,3.52-25.22,5.08-4.89,1-8.69,1.74-13.32,2.71-3.28.72-7.22,1.66-10.48,2.45-2.24.55-4.37,1.16-6.28,1.66-1.43.41-5.23,1.28-6.38,1.7a5.89,5.89,0,0,1-1.37.49c-.05-.09.07-.18.07-.29-.4.08-.53.33-.81.35s-.21-.3-.26-.5c-.27,0-.24.33-.46.48,0-.21-.14-.45,0-.61-.33.06-.12.35-.4.4-.26-.11-.13-.57-.06-.83C81.74,30,82,29.93,82.06,29.89ZM124,21c-.21-.27-1.85.41-2.15.24a66,66,0,0,1,7-1.41c2.61-.54,6.65-1.28,10.09-2.05a8.43,8.43,0,0,0-2.35.28c-5.83.91-16.81,3.49-16.85,3.34s.94-.21,1-.31-4.9,1.06-7,1.49c-.22,0,2.45-.72,2.32-.76a61.1,61.1,0,0,0-6.63,1.53c.5,0,4-.91,4-.81A59.34,59.34,0,0,1,107.21,24c0-.1,1.14-.28,1.31-.46a18.9,18.9,0,0,0-3.35.85c.2.12,1.55-.45,1.47-.3-3.73,1.26-11.47,2.93-11.16,3.08C100.83,25.66,124,21,124,21Zm-19.5,3.57a10,10,0,0,0-2.36.61A9.56,9.56,0,0,0,104.45,24.59Zm25.82-6.44a17.29,17.29,0,0,0-3.57.81C127.62,18.79,129.35,18.43,130.27,18.15Z"/><path class="cls-1" d="M285.78,17c0-.31.44-.69,1.15-.38.38-.22-.16-.33.06-.57s.84-.27.8-.63a3.3,3.3,0,0,1,1.34.07,1.62,1.62,0,0,1,.5-.35c4.33.64,11.77,2,17.45,3,.39.1.66,0,1,.11,6.28,1.35,14,3.27,18.17,4.3,3.49.83,8.09,2.06,12.37,3.08a4.28,4.28,0,0,1,1.25.62,14.82,14.82,0,0,1,2.31.61c-.15.09.14.39-.29.41,1.18.41.29.7,1.64,1.16.15.22-.75-.12-.75.11a1.47,1.47,0,0,0,.9.16c0,.18,0,.55.78,1-1.22-.17-.75.57-2.27.08.45.22.61.59.46.74-7.62-1.39-15.74-3.55-22.3-5-4.3-1-7.63-1.79-11.71-2.73-2.9-.63-6.39-1.34-9.29-1.91-2-.39-3.93-.69-5.64-1-1.29-.2-4.63-.93-5.71-1a4.11,4.11,0,0,1-1.27-.1c0-.11.12-.14.17-.24-.35-.09-.55.09-.78,0s0-.35,0-.56c-.22-.11-.32.21-.55.25,0-.2.06-.46.22-.57-.29-.07-.24.28-.48.21s.12-.58.27-.78C285.48,17,285.72,17,285.78,17Zm36.8,8.48c-.06-.33-1.64-.34-1.82-.61A53.08,53.08,0,0,1,327,26.29c2.3.52,5.85,1.39,8.92,2a7,7,0,0,0-2-.64C328.81,26.26,319,24.37,319,24.21s.83.17,1,.12-4.34-.94-6.14-1.35c-.17-.11,2.23.3,2.15.21A49.49,49.49,0,0,0,310.1,22c.41.16,3.51.72,3.48.82a44.28,44.28,0,0,1-5.57-1.1c0-.1,1,.18,1.23.09a14.9,14.9,0,0,0-3-.54c.11.19,1.41.2,1.29.31-3.48-.32-10.27-1.88-10.08-1.62C302.27,20.71,322.57,25.55,322.58,25.48Zm-17-4.36c-.32-.07-2-.54-2.11-.38A7.24,7.24,0,0,0,305.6,21.12Zm23.18,4.18a13.71,13.71,0,0,0-3.18-.64C326.4,24.86,327.93,25.2,328.78,25.3Z"/><path class="cls-1" d="M82.36,30.92c-.14-.27.16-.82,1-.87.3-.37-.31-.22-.19-.54s.75-.63.54-.93A4.22,4.22,0,0,1,85.17,28a1.87,1.87,0,0,1,.36-.55c4.77-1.41,13-3.59,19.39-5.16.45-.08.7-.24,1.06-.33,7.08-1.59,15.93-3.26,20.64-4.12,4-.76,9.25-1.64,14.1-2.54a5.14,5.14,0,0,1,1.56,0,18.1,18.1,0,0,1,2.64-.43c-.11.15.32.29-.12.49,1.39-.13.61.51,2.2.36.25.14-.83.21-.72.41a1.7,1.7,0,0,0,1-.23c.09.17.26.5,1.23.54-1.33.36-.53.84-2.3,1,.56,0,.89.29.8.48-8.44,2-17.76,3.52-25.17,5.08-4.88,1-8.67,1.74-13.29,2.7-3.28.72-7.2,1.65-10.46,2.45-2.23.55-4.36,1.15-6.26,1.65-1.43.4-5.22,1.28-6.37,1.7a5.8,5.8,0,0,1-1.36.49c-.06-.1.06-.18.07-.3-.41.08-.53.34-.81.36s-.21-.3-.26-.51c-.27,0-.24.34-.46.48,0-.2-.14-.44,0-.61-.33.07-.13.36-.4.4s-.13-.57-.06-.82C82,31,82.31,31,82.36,30.92Zm41.79-8.84c-.21-.28-1.84.41-2.14.23a65.11,65.11,0,0,1,7-1.4c2.6-.53,6.63-1.28,10.06-2.05a8.87,8.87,0,0,0-2.35.28c-5.81.91-16.76,3.49-16.8,3.34s.93-.22,1-.31-4.89,1-6.93,1.48c-.23,0,2.44-.71,2.31-.76a62.86,62.86,0,0,0-6.61,1.53c.5,0,3.94-.91,4-.8a59,59,0,0,1-6.24,1.47c0-.1,1.14-.28,1.31-.46a18.9,18.9,0,0,0-3.35.85c.21.12,1.55-.45,1.48-.3-3.73,1.26-11.45,2.92-11.14,3.07C101.09,26.71,124.18,22.1,124.15,22.08ZM104.7,25.64a9.77,9.77,0,0,0-2.35.6A9,9,0,0,0,104.7,25.64Zm25.76-6.43a17,17,0,0,0-3.56.81C127.82,19.85,129.54,19.49,130.46,19.21Z"/><path class="cls-1" d="M285.61,18.06c0-.3.45-.69,1.15-.37.38-.22-.16-.33.06-.57s.84-.28.79-.63a3.16,3.16,0,0,1,1.35.06,1.62,1.62,0,0,1,.5-.35c4.32.64,11.74,2,17.41,3a7.58,7.58,0,0,0,1,.11c6.26,1.36,14,3.27,18.12,4.29,3.49.83,8.08,2.06,12.35,3.08a4.16,4.16,0,0,1,1.25.62,13.73,13.73,0,0,1,2.29.61c-.14.09.15.39-.29.4,1.18.41.3.7,1.64,1.17.15.22-.75-.12-.75.1a1.4,1.4,0,0,0,.9.16c0,.19,0,.55.78,1-1.22-.17-.75.57-2.26.08.45.23.6.6.45.74-7.6-1.38-15.7-3.54-22.24-5-4.29-1-7.62-1.79-11.69-2.73-2.89-.63-6.38-1.33-9.27-1.9-2-.39-3.92-.69-5.62-1-1.29-.2-4.63-.93-5.7-1a4.81,4.81,0,0,1-1.27-.1c0-.11.12-.14.17-.24-.35-.1-.55.08-.78,0s-.05-.36,0-.56c-.21-.12-.32.21-.55.24,0-.2.06-.46.22-.56-.29-.08-.24.27-.48.2s.12-.57.28-.78C285.32,18,285.55,18.08,285.61,18.06Zm36.72,8.47c-.07-.33-1.64-.34-1.81-.61a53.16,53.16,0,0,1,6.17,1.42c2.29.51,5.83,1.38,8.9,2a7,7,0,0,0-2-.64c-5-1.38-14.84-3.26-14.81-3.42s.84.16,1,.12-4.33-.94-6.13-1.35c-.17-.11,2.23.3,2.15.21a49.4,49.4,0,0,0-5.89-1.19c.42.15,3.51.71,3.48.81a43.57,43.57,0,0,1-5.55-1.1c0-.1,1,.19,1.22.1a15.52,15.52,0,0,0-3-.55c.12.19,1.41.2,1.29.31-3.47-.31-10.24-1.87-10.06-1.61C302.07,21.77,322.32,26.59,322.33,26.53Zm-16.94-4.35c-.32-.07-2-.55-2.11-.38A7.24,7.24,0,0,0,305.39,22.18Zm23.13,4.16a13.63,13.63,0,0,0-3.18-.63A29.8,29.8,0,0,0,328.52,26.34Z"/><path class="cls-1" d="M268.83,324.87c-.16.18-.47.38-.48.14-.2.11-.13.22-.31.35s-.35.11-.53.33c-.16,0-.19-.05-.29-.14a1.44,1.44,0,0,1-.31.19c-.71-.69-1.9-1.93-2.86-2.82-.05-.08-.14-.07-.19-.11-1-1.11-2.13-2.5-2.8-3.19a28.19,28.19,0,0,0-2.05-2c-.1-.09-.06-.19-.07-.39-.16-.11-.36-.24-.39-.37s.15-.24.29-.25c-.15-.24.26-.43.08-.71.07-.13.17.07.28-.07s-.12-.12-.19-.09a.85.85,0,0,0,.24-.59c.28.1.51-.35.73-.06a.61.61,0,0,1,.22-.45,16.5,16.5,0,0,1,4,3.32c.68.74,1.2,1.33,1.81,2.07.45.51,1,1.11,1.45,1.62.31.35.65.65.91.94a12.83,12.83,0,0,0,.89,1c.06.05.23,0,.25.15s-.1.08-.17.14.18,0,.19.06-.18.22-.3.34.19-.1.27-.11a2.52,2.52,0,0,1-.35.33c0,.07.2-.15.22-.09a2.12,2.12,0,0,1-.48.46C268.88,324.92,268.86,324.86,268.83,324.87Zm-5.26-7c-.15.21.29.25.2.42s-1.19-1-1-1a11.49,11.49,0,0,0-1.6-1.32c0,.2.14.31.27.4.82.87,2.62,2.26,2.52,2.37s-.15-.12-.2-.09.73.69,1,1c0,.08-.46-.26-.49-.2s.75.84,1,.95c0-.12-.58-.57-.52-.64a2.6,2.6,0,0,1,.93.9c-.06.06-.17-.16-.28-.11a1.08,1.08,0,0,0,.52.47c.07-.13-.27-.19-.18-.25.77.33,1.7,1.66,1.79,1.49C266.75,321.47,263.68,317.79,263.57,317.9Zm2.41,3.27c0,.05.24.42.36.33A.48.48,0,0,0,266,321.17Zm-4.27-3.27c.13.19.39.46.59.45A2,2,0,0,0,261.71,317.9Z"/><path class="cls-1" d="M259.52,325.45c-.18-.17-.37-.5-.14-.5-.1-.23-.2-.15-.33-.34s-.1-.37-.31-.56c0-.17,0-.2.13-.31a1.85,1.85,0,0,1-.18-.32c.65-.76,1.82-2,2.67-3,.07-.05.06-.15.1-.21,1.05-1,2.36-2.25,3-2.95s1.3-1.37,1.9-2.18c.08-.1.18-.06.36-.07.1-.17.23-.37.35-.41s.23.16.23.31c.24-.17.41.27.67.08.13.07-.06.18.07.3s.12-.13.09-.21a.72.72,0,0,0,.55.25c-.09.31.34.55.06.78.13,0,.35.12.43.24a17.31,17.31,0,0,1-3.14,4.25c-.7.72-1.25,1.27-2,1.92-.48.47-1,1.06-1.53,1.53-.32.33-.61.68-.89,1a11.84,11.84,0,0,0-.94.93c0,.07,0,.25-.14.27a.75.75,0,0,1-.13-.18c-.08,0,0,.19-.06.2s-.21-.19-.32-.31.1.2.1.28a2.89,2.89,0,0,1-.31-.38c-.06,0,.14.22.09.24a1.87,1.87,0,0,1-.44-.51S259.52,325.48,259.52,325.45Zm6.58-5.56c-.2-.16-.24.3-.4.21s.94-1.27.95-1.1a13.19,13.19,0,0,0,1.25-1.7c-.19,0-.3.15-.39.29-.81.86-2.13,2.77-2.24,2.67s.12-.16.1-.22-.66.77-1,1.06c-.07,0,.25-.48.19-.51a3.67,3.67,0,0,0-.89,1.05c.11,0,.54-.61.6-.55a2.6,2.6,0,0,1-.85,1c-.05-.06.15-.18.11-.29a1,1,0,0,0-.44.55c.11.07.17-.29.23-.19-.31.81-1.57,1.8-1.41,1.89C262.73,323.24,266.21,320,266.1,319.89ZM263,322.43c-.05.05-.4.25-.31.38A.5.5,0,0,0,263,322.43Zm3.09-4.52c-.18.14-.44.42-.42.62A2,2,0,0,0,266.1,317.91Z"/><path class="cls-1" d="M48.56,306.06a8.24,8.24,0,0,1,.95.7,4.06,4.06,0,0,1,1.94,2.84,17,17,0,0,1,.08,5,36.64,36.64,0,0,0-.19,5,17.32,17.32,0,0,0-.12,2c0,1.36,0,2.71,0,4.07a24.68,24.68,0,0,0,.19,3.7c.23,1.27.88,3.2-.53,3.49-.15,0-.34,0-.53,0-.5,0-.8.2-1.14-.17-.58.21-1.18.41-1.64,0-.15,0,0,.29-.19.33-.27-.12-.46-.16-.69-.25a3.28,3.28,0,0,1-.45-1.15,54.2,54.2,0,0,1-.38-6.61c-1,0-1.52.24-2.63.2-.34,0-.95,0-1.37,0,.08,1.48.19,3.08.15,4.56a8,8,0,0,1-.07,1.4c-.15.82-.61,1.15-1.56,1.11-.19.29-.46.45-.61.7-.8-.25-2,0-2.55-.49-.11-.17-.46-.37-.5-.5a3.71,3.71,0,0,1-.3-1.39c-.11-.95,0-1.81-.08-2.84-.15-2.75-.15-5.22-.11-7.85.08-3.82.42-6.37.11-8.92-.11-1.23-.3-3.12-1-3.16.11-.25.42-.25.68-.37-.26-.29-.72-.21-.76-.78.46-.17.57-.58.91-.66a4.16,4.16,0,0,1,3.28.49,4,4,0,0,1,2.28,2.76,18,18,0,0,1,.46,4.6c0,2.79-.23,5.63-.23,8.18,1.14,0,2.74,0,3.88.12.08-2.79-.08-5.59.11-8.51.08-1,.19-2.05.23-3.08s-.07-2.09-.07-3.16a2,2,0,0,0-.16-1.28c.16-.2.61-.08.42-.41A7.92,7.92,0,0,1,48.56,306.06Z"/><path class="cls-1" d="M60.89,305.86c.42.16,1.71.61,1.86,1,0,.12.12.2.15.32.92.29.76,1.85,1,2.92,0,.17.16.33.19.49.27.83.31,1.81.54,2.72s1.44,8.5,1.63,9.7a8.59,8.59,0,0,1,.15,1.19c.19,1.39.42,2.83.65,4.27a6.19,6.19,0,0,1,.34,2c0,.17-.22.21-.38.25a3.72,3.72,0,0,1-1,2.14c-.23-.45-1.37-.13-1.83-.25-.11.45-.76.54-1.22.37-.11-.45-.49-.66-.68-1a16.82,16.82,0,0,1-.73-2.79,21.7,21.7,0,0,0-4,0c-1,3.25-1.37,3.86-3.2,4.44-.34.12-1.14.24-1.14,0,.57-.87,1-3,1.45-4.65-.15-.12-1-.57-.91-.78s.34,0,.53-.16c-.31-.17-.91-.21-.91-.41s.3.08.49-.09c0-.24-.23-.2-.19-.53.65,0,.8-.33,1.45-.45,1.29-4.73,2.24-10.56,3.42-15.66.08-.37.23-.74.27-1a16.13,16.13,0,0,0-.19-2.09c-.12-.66-.42-1.32-1-.82.08-.58.39-.66.88-.91.15-.08.27-.2.38-.24A3.63,3.63,0,0,1,60.89,305.86Zm-2.7,20.26c1-.09,1.86-.17,3-.17-.38-2.34-.83-5.75-1.18-7.27C59.44,321.23,58.79,323.61,58.19,326.12Z"/><path class="cls-1" d="M76.72,305.86c.42.16,1.71.61,1.86,1,0,.12.12.2.15.32.92.29.76,1.85,1,2.92,0,.17.16.33.19.49.27.83.31,1.81.54,2.72s1.44,8.5,1.63,9.7a8.59,8.59,0,0,1,.15,1.19c.19,1.39.42,2.83.65,4.27a6.19,6.19,0,0,1,.34,2c0,.17-.22.21-.38.25a3.72,3.72,0,0,1-1,2.14c-.23-.45-1.37-.13-1.83-.25-.11.45-.76.54-1.22.37-.11-.45-.49-.66-.68-1a16.82,16.82,0,0,1-.73-2.79,21.7,21.7,0,0,0-4,0c-1,3.25-1.37,3.86-3.2,4.44-.34.12-1.14.24-1.14,0,.57-.87,1-3,1.45-4.65-.15-.12-1-.57-.92-.78s.35,0,.54-.16c-.31-.17-.92-.21-.92-.41s.31.08.5-.09c0-.24-.23-.2-.19-.53.65,0,.8-.33,1.44-.45,1.3-4.73,2.25-10.56,3.43-15.66.08-.37.23-.74.27-1a16.13,16.13,0,0,0-.19-2.09c-.12-.66-.42-1.32-1-.82.08-.58.38-.66.88-.91.15-.08.27-.2.38-.24A3.63,3.63,0,0,1,76.72,305.86ZM74,326.12c1-.09,1.86-.17,3-.17-.38-2.34-.83-5.75-1.18-7.27C75.27,321.23,74.62,323.61,74,326.12Z"/><path class="cls-1" d="M94.49,306.15c.57.16,1.06,0,1.37.53,2.09.82,3.76,2.14,4,5a10.05,10.05,0,0,1-1.9,5.92c-.38.58.53-.29.12.33a25.92,25.92,0,0,1-1.91,2.92c-.72,1-1.37,1.68-2,2.59a39,39,0,0,0,3,4.43s.65.78.61.91-.19-.13-.31-.08c0,.45.5.65.69,1,0-.33-.34-.65-.3-.78s.11,0,.34.17c.53.49,1.06,1,1.33,1s.34-.16.49-.08c.12.29-.07.5-.38.78-.15.09.16.09.08.17-.11.33-.42.49-.61.82s-.15.33-.38.49-.19.25-.27.33a2,2,0,0,1-2.43,0,3.88,3.88,0,0,1-.57-.62c-.38-.37-3.62-5-4-5.67a43,43,0,0,1,0,5.43,2.24,2.24,0,0,1-.76.7c-.38.24-.27.12-.76.28s-1,.58-1.52.05c-.16-.05-.19.28-.35.12-.19,0-.26-.25-.45-.25s-.46.17-.57.17a1.64,1.64,0,0,1-.92-.37,3,3,0,0,1-.22-.7,23.66,23.66,0,0,1,.15-4.07c.15-3-.19-12.12,0-14.1.15-1.72.61-3.73.34-5.17-.23-.21-.3.12-.84-.13,0-.24.16-.24.35-.33-.12-.16-.69-.24-.46-.41s-.3-.78,0-1.31a.28.28,0,0,1,.31.12c.11,0,.07-.2.15-.24A4.92,4.92,0,0,1,87,306a24.29,24.29,0,0,1,3.73-.24A14.16,14.16,0,0,1,94.49,306.15Zm-2.78,5.21c-.12,5.47-.12,7.44-.12,9.29a16.36,16.36,0,0,0,3.13-7.11A6.4,6.4,0,0,0,94.3,310a2.88,2.88,0,0,0-2.51-1.11A16.85,16.85,0,0,0,91.71,311.36Zm5.36,16.77a15.22,15.22,0,0,0-1.86-2.3A11.79,11.79,0,0,0,97.07,328.13Zm.23,1.27a2.61,2.61,0,0,0-.72-1C96.5,328.5,97,329.2,97.3,329.4Zm.08-.82c0-.12-.15-.37-.23-.28S97.38,328.75,97.38,328.58Zm.27,1.28c.07-.09-.2-.37-.27-.33S97.61,329.9,97.65,329.86Zm.83.94a1.62,1.62,0,0,0-.72-.82C97.87,330.31,98.41,330.93,98.48,330.8Zm.72-.12a2.61,2.61,0,0,0-.91-.91C98.44,330.06,99.09,330.8,99.2,330.68Z"/><path class="cls-1" d="M110.35,306.15c.57.16,1.07,0,1.37.53,2.1.82,3.77,2.14,4,5a10.12,10.12,0,0,1-1.9,5.92c-.38.58.53-.29.11.33a24.6,24.6,0,0,1-1.9,2.92c-.72,1-1.37,1.68-2,2.59a39,39,0,0,0,3,4.43s.64.78.61.91-.19-.13-.31-.08c0,.45.5.65.69,1,0-.33-.35-.65-.31-.78s.12,0,.34.17c.54.49,1.07,1,1.34,1s.34-.16.49-.08c.12.29-.08.5-.38.78-.15.09.15.09.08.17-.12.33-.42.49-.61.82s-.15.33-.38.49-.19.25-.27.33a2,2,0,0,1-2.43,0,3.88,3.88,0,0,1-.57-.62c-.39-.37-3.62-5-4-5.67a43,43,0,0,1,0,5.43,2.24,2.24,0,0,1-.76.7c-.38.24-.27.12-.76.28s-1,.58-1.53.05c-.15-.05-.19.28-.34.12-.19,0-.27-.25-.46-.25s-.45.17-.57.17a1.6,1.6,0,0,1-.91-.37,3,3,0,0,1-.23-.7,25.86,25.86,0,0,1,.15-4.07c.16-3-.19-12.12,0-14.1.15-1.72.61-3.73.34-5.17-.23-.21-.31.12-.84-.13,0-.24.15-.24.34-.33-.11-.16-.68-.24-.45-.41s-.31-.78,0-1.31a.26.26,0,0,1,.3.12c.12,0,.08-.2.16-.24a4.86,4.86,0,0,1,1.14-.13,24.21,24.21,0,0,1,3.73-.24A14,14,0,0,1,110.35,306.15Zm-2.77,5.21c-.12,5.47-.12,7.44-.12,9.29a16.24,16.24,0,0,0,3.12-7.11,6.31,6.31,0,0,0-.42-3.57,2.86,2.86,0,0,0-2.51-1.11A16.91,16.91,0,0,0,107.58,311.36Zm5.36,16.77a15.22,15.22,0,0,0-1.86-2.3A11.79,11.79,0,0,0,112.94,328.13Zm.23,1.27a2.72,2.72,0,0,0-.72-1C112.37,328.5,112.83,329.2,113.17,329.4Zm.08-.82c0-.12-.16-.37-.23-.28S113.25,328.75,113.25,328.58Zm.26,1.28c.08-.09-.19-.37-.26-.33S113.47,329.9,113.51,329.86Zm.84.94a1.62,1.62,0,0,0-.72-.82C113.74,330.31,114.27,330.93,114.35,330.8Zm.72-.12a2.69,2.69,0,0,0-.91-.91C114.31,330.06,115,330.8,115.07,330.68Z"/><path class="cls-1" d="M120.86,306.68c.45,0,.57.41.91.62a5.35,5.35,0,0,1,.53.49,9.87,9.87,0,0,1,.8,3.29c.15,1.44,0,2.87,0,4.31,0,1.93,0,3.62-.19,5.43a30,30,0,0,0-.23,5.83c.11,1.73.61,4.28.19,6-.11.16-.11.45-.34.53a3.37,3.37,0,0,1-.95-.57,1.32,1.32,0,0,1-.73-.17c-.49.09-.57.54-1.21.46-.12,0,0,.28-.08.28-.27.21-.46,0-.76,0-.46-.69-.42-2.79-.61-3.82a93.15,93.15,0,0,1-.27-15.61c-.19-1.73.27-4.73-.34-6.78,0-.25.19.12.27,0,.07-.33-.35-.79-.12-1a7.23,7.23,0,0,0,1.18.29c0-.25-.64-.62-.38-.62A2.9,2.9,0,0,1,120.86,306.68Z"/><path class="cls-1" d="M137.75,306.84c.08.87.76,1,.95,1.69a5.75,5.75,0,0,1-.19,1.72,26.77,26.77,0,0,0-.3,4.61c0,1.56.76,9.41-1,13.31a11.21,11.21,0,0,1-1.91,2.63c-1,1-1.25,1.81-3,2.14-.31,0-.53.2-.84.25a5.44,5.44,0,0,1-2.74-.33,5.13,5.13,0,0,0-.49-.37,6.86,6.86,0,0,1-2.86-4.11,11,11,0,0,1-.11-1.89,2.44,2.44,0,0,0,.23-1.36,2.51,2.51,0,0,1,1-1.89c.92.58,2.33.7,3.2,1.44a3.4,3.4,0,0,1,.8,1.07,5.13,5.13,0,0,1-.15,1.6c-.15,1.64.19,3.33.68,3.33.8,0,1.11-1.93,1.41-3.41.76-4.15-.11-7.93-.15-11.34a61.49,61.49,0,0,1,.49-7.2c-1.25,0-2.28-.12-3.12-.12-1.21,0-3,.12-2.43-.53.11-.13-.27-.17-.19-.62s-.8-.2-1.26-.29c0-1.31,1.22-1.27,2.51-1.19,1.83,0,4.61-.12,6.4-.2A3.93,3.93,0,0,1,137.75,306.84Z"/><path class="cls-1" d="M152.82,306.23c.8,1.39.57,3.29.53,5.38-.07,1.48,0,3.08-.11,4.48-.08,1.56-.15,3.74-.15,5.26,0,2.18-.16,3.58-.16,5.84a13.6,13.6,0,0,0-.15,2c.08.45.46.9.38,1.4s-.26.82-.49,1.19-.54.28-.54.65c-.22,0-.34.09-.34.25a2.54,2.54,0,0,1-2.89-.25,9.72,9.72,0,0,1-1.75-2.83c-1.41-3.08-2.63-7.93-3.58-11.22,0,1.15.23,9.53.15,11.18,0,.24-.15.53-.19.82-.07,1,0,1.81-.68,2.22-.53.37-1.14.25-1.75.41.53-4.23.15-8.75.15-13.23a75.27,75.27,0,0,1,.15-7.77,3.59,3.59,0,0,0,.16-1.23,11.05,11.05,0,0,0-1.11-3.78c-.19-.17.46-.17.42-.45s.72.12,1.1-.46c.38-.37,1.34-.28,2.1.17a4,4,0,0,1,1.14,1.56,19,19,0,0,1,.8,2.1c1.1,3.2,1.56,4.64,2.55,7.72.72,2.26,1.33,4,2.17,6.08,0-3.12.11-5.13.11-8.54a51.59,51.59,0,0,1,.38-8.88c.15-.45.91-.08.84-.37C152.25,305.53,152.44,306.27,152.82,306.23Z"/><path class="cls-1" d="M166.67,307.71a36.76,36.76,0,0,1,.27,3.94,5.12,5.12,0,0,1,.07,1.81c-.15.33-.42.53-.46,1-.19-.29-.53.12-.53.37-.07,0-.07-.13-.23-.13-.07.17,0,.41-.11.54s-.15-.21-.23-.29a.91.91,0,0,1-.38.25c-.11,0-.27.28-.46.24-.34,0-.6-.7-.64-1.19-.69-1-.54-2.47-.61-3.74a3.23,3.23,0,0,0-1.45,1.85,4.12,4.12,0,0,0,.73,3.25c1.1,1.85,4,6.28,4.41,8.17,1.18,4.57-1,6.58-1.22,6.95a1.64,1.64,0,0,1-.34.7l-.27.12a12.49,12.49,0,0,1-1.1.95,6,6,0,0,1-3.46.65,5.72,5.72,0,0,1-2.32-.86,9.77,9.77,0,0,1-2.59-6.29,11.09,11.09,0,0,1-.08-1.93c.08-.7,1-.41,1.11-1.07a3,3,0,0,1,2.85,1.36,7.6,7.6,0,0,0,.49,1c.73,2.13-.26,4.31,1.56,5.17,2.44-.78.77-5-.3-6.7-.34-.61-2-3.16-2.74-4.19a16,16,0,0,1-2.4-4.15,8.2,8.2,0,0,1,1.18-7.52,15.9,15.9,0,0,1,1.37-1.35,2.72,2.72,0,0,1,.73-.37,2.52,2.52,0,0,0,.3-.62c.19-.49,2.13.86,3.08,1.27.27.13.34.46.42.83.76-.74,0-1.61.69-2.31C165.53,305.08,166.33,306,166.67,307.71Z"/><path class="cls-1" d="M172.41,306.1c3,.17,5.1-.28,7.42.09.16,0-.11.16-.22.2.19.41.91-.16,1,.21.11.61-.54,1-.5,1.39,0,.58-3.39.66-5,.83a34.35,34.35,0,0,1,.15,7.64c1.44,0,2.81-.21,4.53-.08.07.24-.08.45,0,.7s.19.33.19.53c.08.74-.57,1.11-1,1.52-.19.08-.11-.16-.23,0-1,.49-2.32.29-3.65.25a31.67,31.67,0,0,0,.11,4.93c-.15,1.52,0,3.49-.07,5.09a14.37,14.37,0,0,0,2,.25,20,20,0,0,0,3.16.21c.68,0,.08,1.27,0,2-1,1-3.61,1.19-5.67,1.27a9.17,9.17,0,0,1-3.42-.41c-.16-.08.19,0,0-.37-.38-.49-.5-1-.65-1.07-.19.25.53,1.15.46,1.32-.53-.13-.69-.7-.91-1.15-.16-1.85-.08-4.11-.08-6.08,0-.95,0-2.22,0-3.37,0-2.39,0-12.09-.23-13.28-.07-.57-.19-1.23-.64-1.48a3.06,3.06,0,0,0,.49-.28c-.19-.29-.49-.42-.49-.91A5.79,5.79,0,0,1,172.41,306.1Z"/><path class="cls-1" d="M200.2,306.56a5.83,5.83,0,0,1,1.75,1.19,4.11,4.11,0,0,1,1.39,1.93,11.25,11.25,0,0,1,.24,6.82c-1.63,5.71-5.67,6.78-7.81,7.11-.15,2.3.12,6.41.16,8.63,0,.37-.43,0-.55,0s-.31.62-.7.7l-.27,0c-.31-.12-.7.2-1.12,0l-.59-.25a2.57,2.57,0,0,1-.5-.08c-.08.37-.82.08-1.09.25-.43-.13-.15-.91-.58-.7s-.16-.37-.31-.66a20,20,0,0,1-.08-4.6c.12-2,0-4.11,0-5.47-.15-4.6.08-9.28.27-12.9-.39,0-.54-.25-.89-.12,0-.21.27-.09.35-.25-.16-.16-.31,0-.47-.08.08-.13.35-.08.47-.17a1,1,0,0,0-.62-.12c0-.16.23-.12.31-.25-.12-.16-.12-.28-.23-.37s.15-.16.23-.24-.23,0-.16-.21.28,0,.43,0-.19-.16-.08-.29.31-.08.39-.2c.27,0,.62,0,.7-.17C194.06,306.15,197.32,305.36,200.2,306.56Zm-4.2,4.85c-.11,2.95-.15,6.28-.15,9.2,1.86-1.07,3-3.78,3.3-6.7.12-1.07.19-3-.31-3.82a3.37,3.37,0,0,0-2.84-1.23C195.93,309.35,196.08,310.46,196,311.41Z"/><path class="cls-1" d="M211.3,307.3a17.69,17.69,0,0,1,.86,4.19c.11,1.07,0,3.33,0,5.42,0,1.73-.12,3.29-.16,5.1-.12,2.42.12,5.3-.08,7.81a16.61,16.61,0,0,0,2.84.08,5.86,5.86,0,0,0,1.2-.08,1.42,1.42,0,0,1,.62-.29c.31.08.43.74.78.78-.12.33.12.2.19.41a.85.85,0,0,0,.2.9c-.16.29-.51.41-.66.62a6.61,6.61,0,0,1-3.3.45,19.48,19.48,0,0,1-3.5,0,11.45,11.45,0,0,0-2.72.13c-.27-.25-.93-.13-1.28-.33a.3.3,0,0,1,.2,0c0-.13-.27-.09-.31-.21s.15-.08.19,0c-.12-.25-.39-.12-.39-.41s.08-.08.16-.13c-.35,0-.35-.57-.27-.9a.89.89,0,0,0,.46,0c-.15-.29-.7-.29-.62-.62,0-.16.43,0,.62-.08,0-3,.08-12.08.08-13.15,0-.9,0-1.85,0-2.75,0-1.32,0-2.59-.12-3.82-.19-1.44,0-3.37-.66-4.07a9,9,0,0,1,3.46-.37C210.1,305.94,210.72,306.8,211.3,307.3Z"/><path class="cls-1" d="M226.41,305.86c.43.16,1.75.61,1.9,1,0,.12.12.2.16.32.93.29.77,1.85,1,2.92,0,.17.15.33.19.49.27.83.31,1.81.54,2.72s1.48,8.5,1.67,9.7a10.38,10.38,0,0,1,.16,1.19c.19,1.39.43,2.83.66,4.27a6.21,6.21,0,0,1,.35,2c0,.17-.23.21-.39.25a3.75,3.75,0,0,1-1,2.14c-.23-.45-1.4-.13-1.86-.25-.12.45-.78.54-1.25.37-.11-.45-.5-.66-.69-1a15.77,15.77,0,0,1-.74-2.79,22.67,22.67,0,0,0-4.12,0c-1,3.25-1.4,3.86-3.26,4.44-.35.12-1.16.24-1.16,0,.58-.87,1-3,1.47-4.65-.15-.12-1.05-.57-.93-.78s.35,0,.54-.16c-.31-.17-.93-.21-.93-.41s.31.08.51-.09c0-.24-.24-.2-.2-.53.66,0,.82-.33,1.48-.45,1.32-4.73,2.29-10.56,3.49-15.66.08-.37.24-.74.27-1a14.54,14.54,0,0,0-.19-2.09c-.12-.66-.43-1.32-1-.82.08-.58.39-.66.89-.91.16-.08.27-.2.39-.24A3.77,3.77,0,0,1,226.41,305.86Zm-2.76,20.26c1-.09,1.9-.17,3-.17-.39-2.34-.85-5.75-1.2-7.27C224.93,321.23,224.27,323.61,223.65,326.12Z"/><path class="cls-1" d="M246.72,307.71a36.76,36.76,0,0,1,.27,3.94,4.91,4.91,0,0,1,.08,1.81c-.16.33-.43.53-.47,1-.2-.29-.54.12-.54.37-.08,0-.08-.13-.24-.13-.07.17,0,.41-.11.54s-.16-.21-.24-.29c-.11.16-.31.2-.38.25s-.28.28-.47.24c-.35,0-.62-.7-.66-1.19-.7-1-.54-2.47-.62-3.74a3.28,3.28,0,0,0-1.48,1.85,4.05,4.05,0,0,0,.74,3.25c1.13,1.85,4.08,6.28,4.5,8.17,1.21,4.57-1,6.58-1.24,6.95a1.54,1.54,0,0,1-.35.7l-.27.12a12.9,12.9,0,0,1-1.13.95,6.24,6.24,0,0,1-3.53.65,6,6,0,0,1-2.37-.86,9.72,9.72,0,0,1-2.64-6.29,11.09,11.09,0,0,1-.08-1.93c.08-.7,1-.41,1.13-1.07a3.06,3.06,0,0,1,2.91,1.36,7.68,7.68,0,0,0,.51,1c.74,2.13-.27,4.31,1.59,5.17,2.48-.78.78-5-.31-6.7-.35-.61-2-3.16-2.8-4.19a15.7,15.7,0,0,1-2.44-4.15,8.06,8.06,0,0,1,1.2-7.52,15,15,0,0,1,1.4-1.35,2.81,2.81,0,0,1,.74-.37,2.57,2.57,0,0,0,.31-.62c.19-.49,2.17.86,3.14,1.27.27.13.35.46.43.83.78-.74,0-1.61.7-2.31C245.55,305.08,246.37,306,246.72,307.71Z"/><path class="cls-1" d="M281.86,305.65a3.73,3.73,0,0,0,1.47.33,14.21,14.21,0,0,1,1.87,1.11,3.49,3.49,0,0,1,.11,2.3c0,.13.08.17.2.25-.43.9-.12,1.89-.12,3.2.2,3.54-.23,8.51.2,12.74a5.58,5.58,0,0,0,.77,2.22c.35.25.58.54,1.09.54,1.71,0,2.44-1.48,3-3.37a18.58,18.58,0,0,0,.39-3.41c0-1.48-.12-9.58-.12-11.51a16,16,0,0,1,.27-3.74c.31-.21.82-.16.82-.49.19-.09.15.08.23.12.12-.49.74-.33.89.12.24.09,0-.24.24-.24.15.37.19.61.31.86s.27.29.31.45a2.76,2.76,0,0,1,.08.78c0,1.11.19,2.26.19,3.5,0,3.24.15,11-.23,12.86a17.46,17.46,0,0,1-.47,1.93,8.11,8.11,0,0,1-.54,1.6,4.93,4.93,0,0,1-.62,1.15,5.44,5.44,0,0,1-1.32,1.89,13.25,13.25,0,0,1-1.09,1,7.18,7.18,0,0,1-3.34,1.23,5.3,5.3,0,0,1-.82,0,5,5,0,0,1-2.17-.53,9.83,9.83,0,0,1-1.94-1.73c-.24-.33-.39-.86-.66-1.27a7.77,7.77,0,0,1-.74-1.93,8.19,8.19,0,0,1-.35-1.4c-.39-3.74,0-8.14,0-12.12a36.14,36.14,0,0,0-.27-4.56,2.27,2.27,0,0,1-.12-.5,1.88,1.88,0,0,0-.46-1.15.27.27,0,0,0,.23-.16c-.16-.21.19-.33-.08-.45,0-.17.24-.09.31-.25-.11-.49.51-.7.74-1.11.08,0,0,.08.12.08s.07-.2.11-.29c.31.17.59-.08.94-.12C281.47,305.69,281.59,305.78,281.86,305.65ZM286,332.36c-.23,0-.42-.08-.7-.08C285.39,332.53,285.93,332.53,286,332.36Zm.27,0c.12.13.2,0,.16.21.54-.08,1.4-.21,1.55-.62C287.49,332.16,286.79,332.12,286.28,332.32Zm1.94-.33a4.53,4.53,0,0,0,2.8-2.09A28.48,28.48,0,0,1,288.22,332Z"/><path class="cls-1" d="M307.72,306.15c0,.12-.2.12-.16.37s.16,0,.27,0c0,.24-.15.37,0,.53s.12-.08.32.16a.33.33,0,0,1-.12.33c0,.13.15,0,.19,0,.2.17-.27.58,0,.58-.11.2-.11.41-.35.37-.42.94-1.9,1-3.14,1.11,0,.33,0,.82,0,1.31,0,1.28-.2,13.36-.2,14.43s.28,3.94.16,5.22a4.52,4.52,0,0,0-.16.45c-.07.86-.15.74-.85,1.23-.23.16-.62.58-1.05.58s-.5-.25-.74-.37a.91.91,0,0,0-.46.49,1,1,0,0,0-.9.16c-.42-.33-.58-.94-1-1.27a.4.4,0,0,1,.08-.37,30.91,30.91,0,0,1-.19-5.84c.08-1.43,0-2.95.11-4.48.08-2.34,0-4.76.08-7a28.07,28.07,0,0,0-.11-4.77c-1.32-.12-2.57,0-3.46-.66a1,1,0,0,1,0-.61,1.48,1.48,0,0,1-.16-1.4c.08-.12.35,0,.31-.25a.89.89,0,0,1,.24.17c1.78-.66,7.8-.58,8.19-.66A22.11,22.11,0,0,1,307.72,306.15Z"/><path class="cls-1" d="M318.74,306.15c.59.16,1.09,0,1.4.53,2.14.82,3.85,2.14,4,5a9.93,9.93,0,0,1-1.94,5.92c-.39.58.54-.29.12.33a24.67,24.67,0,0,1-1.95,2.92c-.73,1-1.39,1.68-2.05,2.59a39.43,39.43,0,0,0,3.1,4.43s.66.78.62.91-.19-.13-.31-.08c0,.45.51.65.7,1,0-.33-.35-.65-.31-.78s.12,0,.35.17c.54.49,1.09,1,1.36,1s.35-.16.5-.08c.12.29-.07.5-.38.78-.16.09.15.09.07.17-.11.33-.42.49-.62.82s-.15.33-.39.49-.19.25-.27.33a2,2,0,0,1-2.48,0,3.5,3.5,0,0,1-.58-.62c-.39-.37-3.69-5-4.08-5.67a43,43,0,0,1,0,5.43,2.32,2.32,0,0,1-.78.7c-.39.24-.27.12-.78.28s-1,.58-1.55.05c-.16-.05-.19.28-.35.12-.19,0-.27-.25-.46-.25s-.47.17-.59.17a1.67,1.67,0,0,1-.93-.37,3,3,0,0,1-.23-.7,24.71,24.71,0,0,1,.15-4.07c.16-3-.19-12.12,0-14.1.16-1.72.63-3.73.35-5.17-.23-.21-.31.12-.85-.13,0-.24.15-.24.35-.33-.12-.16-.7-.24-.47-.41s-.31-.78,0-1.31a.27.27,0,0,1,.31.12c.12,0,.08-.2.16-.24a5.12,5.12,0,0,1,1.17-.13,25.18,25.18,0,0,1,3.8-.24A14.61,14.61,0,0,1,318.74,306.15Zm-2.83,5.21c-.12,5.47-.12,7.44-.12,9.29a16.16,16.16,0,0,0,3.19-7.11,6.22,6.22,0,0,0-.43-3.57,2.94,2.94,0,0,0-2.56-1.11A16.85,16.85,0,0,0,315.91,311.36Zm5.47,16.77a14.89,14.89,0,0,0-1.9-2.3A12,12,0,0,0,321.38,328.13Zm.24,1.27a2.76,2.76,0,0,0-.74-1C320.8,328.5,321.27,329.2,321.62,329.4Zm.08-.82c0-.12-.16-.37-.24-.28S321.7,328.75,321.7,328.58Zm.27,1.28c.07-.09-.2-.37-.27-.33S321.93,329.9,322,329.86Zm.85.94a1.61,1.61,0,0,0-.74-.82C322.2,330.31,322.74,330.93,322.82,330.8Zm.74-.12a2.82,2.82,0,0,0-.93-.91C322.78,330.06,323.44,330.8,323.56,330.68Z"/><path class="cls-1" d="M328.92,306.1c3.07.17,5.2-.28,7.57.09.16,0-.12.16-.23.2.19.41.93-.16,1,.21.11.61-.55,1-.51,1.39,0,.58-3.45.66-5.08.83a34.35,34.35,0,0,1,.15,7.64c1.48,0,2.87-.21,4.62-.08.08.24-.08.45,0,.7s.2.33.2.53c.07.74-.59,1.11-1,1.52-.2.08-.12-.16-.24,0-1,.49-2.36.29-3.72.25a30.48,30.48,0,0,0,.11,4.93c-.15,1.52,0,3.49-.07,5.09a14.77,14.77,0,0,0,2.09.25,20.83,20.83,0,0,0,3.22.21c.7,0,.08,1.27,0,2-1,1-3.69,1.19-5.79,1.27a9.52,9.52,0,0,1-3.49-.41c-.16-.08.19,0,0-.37-.39-.49-.51-1-.66-1.07-.2.25.54,1.15.46,1.32-.54-.13-.7-.7-.93-1.15-.16-1.85-.08-4.11-.08-6.08,0-.95,0-2.22,0-3.37,0-2.39,0-12.09-.23-13.28-.08-.57-.19-1.23-.66-1.48a3.22,3.22,0,0,0,.51-.28c-.2-.29-.51-.42-.51-.91A6.06,6.06,0,0,1,328.92,306.1Z"/><path class="cls-1" d="M350.43,306.1c0-.16,0-.41,0-.49.39.08.66,1,.93,1.48a2,2,0,0,1,.58,1.32c.12,0,.16.12.24.16,0,.53-.39,1-.47,1.44,0,.2.08.53,0,.78,0,.45-.12.7-.2,1.23a5.25,5.25,0,0,1-.15,1.36c-.12.86-.39,1.64-.47,2.38,0,.17-.07.33.12.45-.19.17-.19.54-.31.74a1.71,1.71,0,0,0-1.2,1,2.36,2.36,0,0,0-1.36.66,5.37,5.37,0,0,1-.66-2.39,21.66,21.66,0,0,1,.11-5.3c-1.43.7-2.37,2.3-3.14,3.91a12.24,12.24,0,0,0-1.21,5.67,18.19,18.19,0,0,0,.94,5.26,10,10,0,0,0,1.43,2.59,3.2,3.2,0,0,0,.39.69c.23.25.89.87,1.55.58,1.21-.49,2.84-4.73,3.3-6.9.16,0,.08.37,0,.45s.24,0,.16.12c0,.58-.31,1.11-.23,1.6.23.05,0-.28.15-.37.12.17-.08.83-.12,1.11s.12.37,0,.66c.16.12.16-.2.16-.37a3.42,3.42,0,0,1-.23,1.52c.27,1.56-.78,2.34-1.09,3.5a4.91,4.91,0,0,1-4.93,2c-2.6-.58-4.47-2.92-5.48-6.29a22,22,0,0,1-.77-8.79,15.21,15.21,0,0,1,.66-3,17.13,17.13,0,0,1,2.95-5.8,19.48,19.48,0,0,1,1.43-1.6,8.22,8.22,0,0,1,1.6-1.11,3.24,3.24,0,0,1,1.35-.37c.28.12.35.49.66.78a4.85,4.85,0,0,1,.86,1.32,11.48,11.48,0,0,0,.43-2.72C349.15,305.69,349.85,305.65,350.43,306.1Zm-11,11.14a12.41,12.41,0,0,0-.39,2.63c-.15,5.34,1.48,9.95,4.23,11.84a20.11,20.11,0,0,1-2.25-3.09,18.37,18.37,0,0,1-1.28-4.06c.16-.25,0-.58,0-.87a26,26,0,0,1-.39-5c.08-.78.47-2.42.2-2.42A6.82,6.82,0,0,1,339.44,317.24Zm.54-1.89c.31-.25,1.25-2.47,1-2.47A8.25,8.25,0,0,0,340,315.35Zm4.31,12.45c.08,0,.28.13.16.41.5.54,1.05,1.07,1.63,1.61-.39-.66-.89-1.11-1.24-1.73a16.59,16.59,0,0,1-1.63-4A12.87,12.87,0,0,0,344.29,327.8Z"/><path class="cls-1" d="M366.7,306.06a8.41,8.41,0,0,1,1,.7,4.07,4.07,0,0,1,2,2.84,17,17,0,0,1,.08,5,35.13,35.13,0,0,0-.2,5,17.28,17.28,0,0,0-.11,2c0,1.36,0,2.71,0,4.07a23.4,23.4,0,0,0,.19,3.7c.23,1.27.89,3.2-.54,3.49-.16,0-.35,0-.55,0-.5,0-.81.2-1.16-.17-.58.21-1.2.41-1.67,0-.16,0,0,.29-.19.33-.28-.12-.47-.16-.7-.25a3.27,3.27,0,0,1-.47-1.15,52.62,52.62,0,0,1-.39-6.61c-1,0-1.55.24-2.68.2-.35,0-1,0-1.4,0,.08,1.48.2,3.08.16,4.56a7.93,7.93,0,0,1-.08,1.4c-.15.82-.62,1.15-1.59,1.11-.19.29-.47.45-.62.7-.82-.25-2.06,0-2.6-.49-.12-.17-.47-.37-.51-.5a3.7,3.7,0,0,1-.31-1.39c-.11-.95,0-1.81-.08-2.84-.15-2.75-.15-5.22-.11-7.85.08-3.82.43-6.37.11-8.92-.11-1.23-.31-3.12-1-3.16.11-.25.42-.25.69-.37-.27-.29-.73-.21-.77-.78.46-.17.58-.58.93-.66a4.31,4.31,0,0,1,3.34.49,4,4,0,0,1,2.33,2.76,17.54,17.54,0,0,1,.47,4.6c0,2.79-.24,5.63-.24,8.18,1.17,0,2.8,0,4,.12.08-2.79-.07-5.59.12-8.51.08-1,.19-2.05.23-3.08s-.07-2.09-.07-3.16a2,2,0,0,0-.16-1.28c.16-.2.62-.08.43-.41A8.21,8.21,0,0,1,366.7,306.06Z"/><path class="cls-1" d="M383.4,306.15c0,.12-.2.12-.16.37s.16,0,.27,0c0,.24-.15.37,0,.53s.12-.08.31.16a.31.31,0,0,1-.11.33c0,.13.15,0,.19,0,.2.17-.27.58,0,.58-.12.2-.12.41-.35.37-.43.94-1.9,1-3.14,1.11,0,.33,0,.82,0,1.31,0,1.28-.2,13.36-.2,14.43s.27,3.94.16,5.22a4.52,4.52,0,0,0-.16.45c-.07.86-.15.74-.85,1.23-.23.16-.62.58-1.05.58s-.5-.25-.74-.37a.88.88,0,0,0-.46.49,1,1,0,0,0-.9.16c-.42-.33-.58-.94-1-1.27a.37.37,0,0,1,.08-.37,30.91,30.91,0,0,1-.19-5.84c.07-1.43,0-2.95.11-4.48.08-2.34,0-4.76.08-7a27.07,27.07,0,0,0-.12-4.77c-1.32-.12-2.56,0-3.45-.66a1,1,0,0,1,0-.61,1.48,1.48,0,0,1-.16-1.4c.08-.12.35,0,.31-.25a.89.89,0,0,1,.24.17c1.78-.66,7.8-.58,8.19-.66A22.11,22.11,0,0,1,383.4,306.15Z"/><path class="cls-1" d="M15.91,258.27c.19-.1.23-.46.46-.51.46.16-.64,1.88.09,1.73.32,0-.05,1.63-.33,2.6-.14.81.46-.82.46-.16s-.93,5.55-1,6.56a20,20,0,0,1-.6,2.8c-.37,1.93-.56,3.86-.93,5.79-.19,1-.42,1.88-.56,2.9-.28,1.93-.56,4-.79,5.9-.23,1.57-.15,3.61-1.2,4.37-.46.3-.87.2-1.32.35-.23,0-.42.25-.6.3a3.83,3.83,0,0,1-2.78-.62c-1.72-1.48-2.21-5.45-2.89-8.35a33.57,33.57,0,0,0-.71-3.51C2.73,275.82,0,261.22,0,260.25a2.83,2.83,0,0,1,.83-2.18c.5-.1.87-.61,1.5-.66a6.2,6.2,0,0,1,2.1.16,3.08,3.08,0,0,1,1,0c.18,0,.27.16.45.11.87.25,1.78.51,2.05,1.48-.19,1.88,1.1,13.07,1.72,16,.18,1,.58,3.76.85,4.47.47-2,1.86-10.06,2.23-12.65.1-.71.15-1.53.29-2.29a40.85,40.85,0,0,1,.83-4.47c.14-.66.1-1.58.28-2s.55-.5.78-.86C15.41,257.4,15.69,257.61,15.91,258.27Z"/><path class="cls-1" d="M35.31,264.84a18.09,18.09,0,0,1-7.16,14.48c3,1.53,3.49,7.64,5.35,7.85.87.1,1.46-.61,2-.76s-.1,1.12-.24,1.58-.14.81-.27,1.22-.74.81-.83,1.42a4.11,4.11,0,0,1-4.83-.48c-1.54-1.53-2.48-6.51-3.67-7.33,0,2.74.21,6.2.21,6.41,0,.4.18.86-.28,1.06a9.89,9.89,0,0,1-4,.55A3,3,0,0,1,19.37,289,100.33,100.33,0,0,1,19,276.64c0-2-.12-3.92-.07-5.85,0-1.27,0-2.54.06-3.76.1-2.95.06-4.43.06-5.8-.09,0-.12-2.65.29-3.05a3.86,3.86,0,0,1,3.69-.6A13.18,13.18,0,0,1,27.4,257C33.74,257.67,35.32,261.74,35.31,264.84Zm-9.74,8.72c-.05,1,0,2.14-.1,3.41a16.19,16.19,0,0,0,3.67-7.36c1-4.48.71-8.55-2.48-8.56C25.83,264.61,25.86,268.93,25.57,273.56Z"/><path class="cls-1" d="M41.67,258.46c.54.05.68.51,1.09.76.22.26.5.41.63.62a12.47,12.47,0,0,1,1,4.07c.17,1.78-.06,3.56,0,5.34,0,2.39-.06,4.47-.25,6.71a38.79,38.79,0,0,0-.29,7.22c.13,2.14.71,5.3.2,7.38-.14.2-.14.56-.41.66a4,4,0,0,1-1.14-.72,1.57,1.57,0,0,1-.86-.2c-.6.1-.69.66-1.46.55-.14,0,0,.36-.1.36-.32.25-.54-.06-.91,0-.54-.86-.49-3.46-.71-4.73-.8-6.31-.5-13.48-.26-19.33-.22-2.13.34-5.85-.38-8.39,0-.31.23.15.32-.05.09-.41-.41-1-.13-1.27a8.12,8.12,0,0,0,1.41.36c0-.31-.77-.77-.45-.77A3.45,3.45,0,0,1,41.67,258.46Z"/><path class="cls-1" d="M58.44,257.7a1.93,1.93,0,0,1,1,.92,2.24,2.24,0,0,1,.68,1.48c.09.2.37.15.41.4.18,2.45,0,4.48,0,7,0,2.65.64,10.84-.33,16.43-.56,3.1-1.48,5.49-3.67,6.65a4.77,4.77,0,0,1-3.19.35c-.59-.11-.64.2-1,.14a4.43,4.43,0,0,1-2.13-.71c-2-1.28-3.27-4-3.26-7.7a15,15,0,0,1,1.57-6.55c.41-.81,1,.56,2.59,1,.41.16-.13.36.05.56s.68.06.91.46c0,.11,0,.41.09.67s.36.45.36.56c.14.4-.14.91-.05,1.37.09.25.27.51.32.71s-.19.41-.23.66c-.51,2.09.16,4.43,1.49,4.23s1-2.74.83-4.83a62.76,62.76,0,0,1-.38-9.41,1,1,0,0,1,.19-.51c-.13-3.36.25-6.76.35-10.42-1.18-.06-2.6.24-3.92.19A10.71,10.71,0,0,1,50,261a9.24,9.24,0,0,1-1.18.05c-.59,0-.59-.72-1.23-.92-.32-.11.27-.31.41-.31-.13-.3-.41-.2-.59-.56-.09-.2.32-.66.51-.76a5.82,5.82,0,0,1,1.68-.55c1.74-.66,4.15,0,5.75-.55.32-.05.55-.3.86-.2A3.19,3.19,0,0,1,58.44,257.7Zm-6,32.94c0-.31-1.27-.41-1.82-.77.78,0-.77-.72-.86-.61A3.26,3.26,0,0,0,52.45,290.64Zm1.69-.76a8.5,8.5,0,0,1-2.91-.47A2.78,2.78,0,0,0,54.14,289.88Z"/><path class="cls-1" d="M69.07,284.08c.27.56.77.46,1.27.72a4,4,0,0,1,.67,2.59,4.39,4.39,0,0,1-1.1,1.88,10.32,10.32,0,0,1-4,2.48c-.14.1-.09-.15-.23-.15-.95.4-1.82-.16-2.55-.42a2.65,2.65,0,0,0-.13-.35c.45-.51.18-1,.18-1.38a10.16,10.16,0,0,1,1-4.06A2.73,2.73,0,0,1,65.33,284c.14,0,.09.15.13.15s.1-.15.1-.3c.36.05,1.46-.36,1.78-.25Z"/><path class="cls-1" d="M90.21,257.6a15.58,15.58,0,0,1,6,4.7c1.59,2.24,1.94,6.16,1.29,9.06a9.1,9.1,0,0,1-.73,2.13,135.37,135.37,0,0,1-7.61,12c1.82.06,4,.73,5.61-.13a4.21,4.21,0,0,0,2.1-2.69c.09-.2.23-.61.51-.61s0,1.53.4,1,.23,1.32-.14,2.69c-.1.36.64.06.41.62-.37,1.06,0,1.52-.7,2,.05.3.55,1.07,0,1.06-1,.15-1.37,1-2.24,1.22-.41.15-1.54.09-2.14.19-1.5.2-4-.21-6.06,0-.73,0-1.41,0-1.78,0a12.79,12.79,0,0,1-3.6-.57c0-.15.14-.15.19-.26-.14-.15-.37-.1-.46-.2-.09-.26.23-.66-.22-.87s.36-1.16-.27-1.32c-.46,0,0-.66,0-.76a4.67,4.67,0,0,1,.92-2.9,4.74,4.74,0,0,0,.64-1.22c-1,.1,4.31-6.44,6.37-9.74,1.51-2.39,2.84-5,2.4-8.74,0-.41-.27-1.12-.5-1.22s-1.09.55-1.41.91c-1.38,1.52-1.75,3.45-1.57,6.2-.42,1.32-2.2,1.52-2.88,2.63-.69,1.32-3.33-1.64-3.91-4.39A10.35,10.35,0,0,1,81,264a10.93,10.93,0,0,1,4.63-6.29c.27-.15.54-.46.77-.56C87.43,256.73,89.25,257.19,90.21,257.6Z"/><path class="cls-1" d="M115.32,257.74a1,1,0,0,1,.14.3c3.32,1,2.89,6.93,2.6,14,0,1.42-.06,4.17-.07,5.69a4.21,4.21,0,0,1,2,1.18c-.18.36-.5,0-.73.1a8.38,8.38,0,0,0,.86.56c.32.11,0,.41-.32.41s.32.41-.18.66.54.87-.1,1.07a3.91,3.91,0,0,1-1.55.4c0,1.63.13,3.25.08,4.93,0,.66-.14,1.43.49,1.48.23,0,0,.61.28.76s-.51.71-.42,1.17c.14.26-1.78.61-2,.55a6.73,6.73,0,0,1-4.79-.16,6.4,6.4,0,0,1-.54-.72c-.23-.2.36-.15.5-.3a4.62,4.62,0,0,1-.5-1.38c0-.2.19-.2.23-.3a40.36,40.36,0,0,1,.07-5.75c-1.69-.06-9.39.07-11-.9-.19-.05.32-.3,0-.41-.5-.15-.63-1.27-1-1.88s.23-.36.18-.61c-.13-1,.55.61.09-.82s.6-2.28,1.07-5.08a32.54,32.54,0,0,0-.06-8.54c-.09-.66.05-1.32,0-1.83s-.41-.46-.37-.82c.19-.2.46-.25.69-.45a.65.65,0,0,0-.41-.31c.14-.2.46-.25.78-.3,0-.21-.09-.26,0-.46a6.13,6.13,0,0,1,2.69.16c1.82.31,3.51.57,4.14,2.25,1.13,3,.79,10.43-.14,14.75a33.49,33.49,0,0,0,3.6.27c.15-2,.1-3.51.11-4.83.07-6.57.48-9.26.49-12.26a4.54,4.54,0,0,0-.45-1.93c.37-.1.55-.36.87-.46-.13-.3-.45-.31-.45-.71A6.74,6.74,0,0,1,115.32,257.74Z"/><path class="cls-1" d="M143.94,258.9c.32,0,.6-.46.82-.15a8.88,8.88,0,0,1,1.58,6.36c-.33,3.1-2.39,5.39-3.53,7.21a38.32,38.32,0,0,0,5.53,9.38,24.33,24.33,0,0,0,2.61-5,28,28,0,0,0,1.39-6,5.1,5.1,0,0,0-2.61,2.18c0,.15-.23.2-.27.35-.32-.1-.87,0-1.19-.11a2.18,2.18,0,0,1-2.05.25c.41-.35-.41-.15-.5-.56a8.25,8.25,0,0,1,3.17-6.3,11.4,11.4,0,0,1,5.11-1.4c1.77-.2,3.64-.75,3.56-3.55.5-.66.33-1.93.28-2.75.69.46.68,1.89.68,2.8.41.46.18,1.38.27,2.09,0,.3.13.61.13.81a6.24,6.24,0,0,1-1.15,3.1c-1,1.58-2.1,2.08-4.2,2.58,0,.51.32.66.5.92a9.18,9.18,0,0,1,.07,4.17,30.09,30.09,0,0,1-3.76,9.35,5.55,5.55,0,0,0,1.77,1.68c2,1,3.83-.5,4.56-2.12.1-.36.23.15.37-.2.18-.51.41-1.58,1.28-1.68.32.82-1.1,2.9-.1,2.7.64,0-.64,1.47-.37,1.88a3.87,3.87,0,0,1-1.06,2,6.32,6.32,0,0,1-5.61,2.17,7,7,0,0,1-4.32-2.51c-2.52,3-9.36,4.6-13,1.38-2-1.78-3.45-5.15-2.43-9.72a17.09,17.09,0,0,1,4.4-7.67,13.43,13.43,0,0,1-2-8c.38-4.42,3.77-7.62,7.78-7A2.88,2.88,0,0,1,143.94,258.9Zm-4.6,27.19a4.11,4.11,0,0,0,5.06-.28,54.41,54.41,0,0,1-5-7.65C137.54,280.7,137.11,284.41,139.34,286.09Zm2.16-19c1.33-1.62,2.29-4.57,1-5.13S140.28,265,141.5,267.13Z"/><path class="cls-1" d="M184.64,259.39c-.18.25.05.46.05.71-.05.51-.19,1.12-.24,1.63,0,.25,0,.51,0,.76s-.22.46-.32.71c-.18.82-.18,1.68-.37,2.54a18.71,18.71,0,0,1-1,2.95c-.37,1-.65,2-1,3l-2.67,8.48a18.2,18.2,0,0,1-1.24,2.9,20.51,20.51,0,0,1-1.56,3.76c1.32,0,2.87.11,4.28,0,1.87-.2,2.47-2.18,3.43-3.34a8.17,8.17,0,0,0,.09,1.83,23.29,23.29,0,0,1-.19,2.34c0,.45.13.86-.05,1.22s-.83.81-1.06,1.27a2.34,2.34,0,0,1-.41.76,3.82,3.82,0,0,0-1,.35c-.41-.1-.91.1-1.14-.06a8.79,8.79,0,0,1-2.46.25c-2.6,0-5.19-.42-7.88-.53,0-.16-.18-.16-.32-.21-.95-2.29-.12-5,.57-7.07.37-1,.87-2,4.19-11.63.82-2.23,1.74-4.37,2.52-6.55a5.56,5.56,0,0,0,.19-.61,11,11,0,0,0,1-2.39c-2-.21-4.88,0-6.24-1a5.43,5.43,0,0,1-1.41-.46c0-.41-.46-.41-.55-.76.14-.05.32-.05.41-.1-.13-.31-.45-.36-.68-.57.14-.1.41,0,.5-.1s-.27-.1-.09-.3.41-.25.73-.25c0-.31-.45,0-.45-.31,2.37-.75,6.52-.69,9.66-.53.32,0,.68-.1,1-.1C182.19,258,184,258.22,184.64,259.39Z"/><path class="cls-1" d="M195.27,258c.5.21,2,.77,2.23,1.28,0,.15.13.25.18.41,1.09.36.9,2.29,1.17,3.61,0,.21.18.41.23.61.31,1,.35,2.24.62,3.36s1.7,10.54,1.92,12a13.31,13.31,0,0,1,.18,1.48c.22,1.73.49,3.51.76,5.29a8,8,0,0,1,.4,2.49c-.05.21-.27.26-.46.31a4.57,4.57,0,0,1-1.24,2.64c-.27-.56-1.64-.16-2.18-.32-.14.56-.92.66-1.46.46-.14-.56-.59-.82-.82-1.28a21.51,21.51,0,0,1-.85-3.46,26,26,0,0,0-4.83,0c-1.16,4-1.66,4.77-3.85,5.48-.41.15-1.37.3-1.37-.06.69-1.06,1.15-3.66,1.75-5.74-.18-.15-1.23-.72-1.09-1s.41-.05.64-.2c-.36-.21-1.09-.26-1.09-.51s.36.1.59-.1c0-.31-.27-.26-.22-.67.77,0,1-.4,1.73-.55,1.57-5.84,2.73-13.06,4.17-19.36.09-.46.27-.92.32-1.27a20.83,20.83,0,0,0-.22-2.6c-.13-.81-.5-1.63-1.14-1,.1-.71.46-.81,1.06-1.12.18-.1.32-.25.45-.3A4.4,4.4,0,0,1,195.27,258ZM192,283c1.23-.09,2.23-.19,3.55-.19-.44-2.9-1-7.12-1.38-9C193.47,277,192.69,279.91,192,283Z"/><path class="cls-1" d="M216.73,258.38c0,.15-.22.15-.18.46,0,.15.18-.06.32,0,0,.3-.18.45-.05.66s.14-.1.36.2a.4.4,0,0,1-.13.41c0,.15.18.05.23,0,.22.2-.33.71,0,.71-.14.25-.14.51-.41.46-.51,1.17-2.24,1.26-3.7,1.36,0,.41-.05,1-.05,1.63,0,1.57-.28,16.53-.29,17.85s.31,4.88.16,6.46c0,.15-.13.35-.18.56-.1,1.06-.19.91-1,1.52-.27.2-.73.71-1.23.71s-.59-.31-.86-.46a1.09,1.09,0,0,0-.55.61,1.11,1.11,0,0,0-1,.19c-.5-.4-.68-1.17-1.14-1.58a.47.47,0,0,1,.1-.45,40.55,40.55,0,0,1-.21-7.23c.1-1.78.06-3.66.16-5.54.1-2.9.06-5.9.12-8.7a36.23,36.23,0,0,0-.12-5.9c-1.55-.15-3,0-4.06-.82a1.41,1.41,0,0,1,.05-.77,1.93,1.93,0,0,1-.17-1.73c.09-.15.41,0,.36-.3a.94.94,0,0,1,.27.2c2.1-.8,9.17-.68,9.62-.78A26,26,0,0,1,216.73,258.38Z"/><path class="cls-1" d="M222.21,284.59c.27.56.77.46,1.27.72a4,4,0,0,1,.68,2.59,4.5,4.5,0,0,1-1.1,1.88,10.43,10.43,0,0,1-4,2.48c-.13.1-.09-.15-.22-.15-1,.4-1.83-.16-2.55-.42a3.42,3.42,0,0,0-.14-.36c.46-.5.19-1,.19-1.37a10,10,0,0,1,1-4.06,2.67,2.67,0,0,1,1.14-1.37c.14,0,.09.15.14.15s.09-.15.09-.31c.36.06,1.46-.35,1.78-.24Z"/><path class="cls-1" d="M243.35,258.11a15.5,15.5,0,0,1,6,4.7c1.59,2.24,1.94,6.16,1.3,9.06a9.13,9.13,0,0,1-.74,2.13,135.37,135.37,0,0,1-7.61,12c1.83.06,4,.73,5.61-.13a4.23,4.23,0,0,0,2.11-2.69c.09-.21.23-.61.5-.61s0,1.52.41,1,.22,1.32-.15,2.69c-.09.36.64.06.41.61-.37,1.07-.05,1.53-.69,2,0,.3.54,1.07,0,1.06-1,.15-1.37,1-2.23,1.22-.41.15-1.55.09-2.15.19-1.5.2-4-.21-6.06,0-.73.05-1.41.05-1.77.05a13.1,13.1,0,0,1-3.6-.57c0-.16.13-.16.18-.26-.14-.15-.37-.1-.46-.2-.09-.26.23-.66-.22-.87s.37-1.17-.27-1.32c-.46,0,0-.66,0-.76a4.65,4.65,0,0,1,.92-2.9,4.6,4.6,0,0,0,.65-1.22c-1,.1,4.3-6.44,6.36-9.74,1.52-2.39,2.85-5,2.4-8.74,0-.41-.27-1.12-.5-1.23s-1.09.56-1.41.92c-1.37,1.52-1.75,3.45-1.57,6.2-.42,1.32-2.19,1.51-2.88,2.63-.69,1.32-3.32-1.64-3.91-4.39a10.19,10.19,0,0,1,.16-4.42,10.89,10.89,0,0,1,4.62-6.29c.27-.15.55-.46.78-.56C240.58,257.24,242.4,257.7,243.35,258.11Z"/><path class="cls-1" d="M268,259.16c.27.15-.64.2-.23.35.18.06.59.26.32.51-.37.56.13,1.89,0,2.24s-.19.61-.41.36-.14.4-.28.45a3.49,3.49,0,0,1-1.55.4,26.38,26.38,0,0,1-6.7,0,18.71,18.71,0,0,1,.67,5.7,10.63,10.63,0,0,1,4.82,1.29,10.74,10.74,0,0,1,4.73,5.76,16,16,0,0,1,.7,5.55c-.52,7.22-4.35,9.09-5.49,9.54-.87,1-6.84.84-6.84-.12a7.54,7.54,0,0,1-4-4.64c-.9-2.75-.62-6.16.53-8-.1-.3.13-.4.09-.81.41-.25.32-.71.46-1.22.64-.1,1.18.46,1.82.26a.88.88,0,0,0,.68.21,9.37,9.37,0,0,1,1.14,1.07,1.29,1.29,0,0,1,.27.3c.09.11.27.06.37.11a8.6,8.6,0,0,1,1,1.53c.36,1.17-.37,2.18-.6,3s-.42,4.57,1.17,4.93c2.23.57,3.11-4.31,2.76-7.92-.31-3-1.44-5.8-3.17-6.37-.59.15-1.14-.31-1.82-.51a12.1,12.1,0,0,0-2.46-.47c-.41,0,.28-.51-.14-.56s-1,.35-1.22-.26c0-.2.32-.15.32-.4-.18-3.06.52-5.5.48-8.4,0-1.93-.63-1.83-.63-2.08s.5,0,.5-.26a1.59,1.59,0,0,0-.54-1c-.19-.11.23,0,.27-.21s-.54-.25-.13-.3,0-.46.32-.46.72.1.72-.05-.63-.05-.27-.3,1.64,0,2.42,0c1.37.21,3-.29,4.51-.29a32.71,32.71,0,0,0,4.56,0C267.42,258,267.6,259,268,259.16Z"/><path class="cls-1" d="M288.52,258.26c.5.21,2.05.77,2.23,1.28,0,.15.14.25.18.41,1.09.36.9,2.29,1.17,3.61,0,.21.19.41.23.61.32,1,.36,2.24.63,3.36s1.69,10.54,1.92,12c.09.46.13,1,.18,1.48.22,1.73.48,3.51.75,5.29a7.72,7.72,0,0,1,.4,2.49c0,.21-.27.26-.45.31a4.7,4.7,0,0,1-1.24,2.64c-.27-.56-1.64-.16-2.19-.31-.14.55-.91.65-1.46.45-.13-.56-.59-.82-.81-1.28a20.37,20.37,0,0,1-.86-3.46,26,26,0,0,0-4.83,0c-1.15,4-1.66,4.77-3.85,5.48-.41.15-1.37.3-1.36-.06.68-1.06,1.15-3.66,1.75-5.74-.18-.15-1.23-.72-1.09-1s.41-.05.64-.2c-.37-.21-1.1-.26-1.1-.51s.37.1.6-.1c0-.31-.28-.26-.23-.67.77,0,1-.4,1.73-.55,1.57-5.84,2.74-13.06,4.17-19.36.09-.46.28-.92.32-1.27a19.08,19.08,0,0,0-.22-2.6c-.13-.81-.49-1.63-1.13-1,.09-.71.46-.81,1-1.12a5,5,0,0,1,.46-.3A4.36,4.36,0,0,1,288.52,258.26Zm-3.32,25.06c1.23-.09,2.24-.19,3.56-.19-.45-2.9-1-7.12-1.38-9C286.73,277.28,285.94,280.22,285.2,283.32Z"/><path class="cls-1" d="M302.15,258.05a4.21,4.21,0,0,0,1.73.41,16.38,16.38,0,0,1,2.18,1.38,4.55,4.55,0,0,1,.13,2.85c0,.16.09.21.23.31-.51,1.12-.15,2.34-.15,4,.21,4.37-.31,10.52.17,15.76a7.32,7.32,0,0,0,.91,2.75c.41.31.68.67,1.27.67,2,0,2.88-1.82,3.52-4.16a22.59,22.59,0,0,0,.47-4.22c.06-1.83-.09-11.85-.09-14.24a21.16,21.16,0,0,1,.34-4.63c.36-.25,1-.2,1-.61.23-.1.18.11.27.16.14-.61.87-.41,1.05.15.27.11.05-.3.27-.3.18.46.23.76.36,1.07.09.15.32.36.37.56a3.29,3.29,0,0,1,.08,1c0,1.37.22,2.79.22,4.32,0,4,.14,13.68-.33,15.92a22.87,22.87,0,0,1-.55,2.39,11,11,0,0,1-.65,2,5.79,5.79,0,0,1-.73,1.42,6.54,6.54,0,0,1-1.56,2.33,16.51,16.51,0,0,1-1.28,1.17,8.15,8.15,0,0,1-3.92,1.51,5.93,5.93,0,0,1-1,.05,5.59,5.59,0,0,1-2.55-.67,12.2,12.2,0,0,1-2.27-2.14c-.27-.41-.45-1.07-.77-1.58a10.49,10.49,0,0,1-.86-2.4,9.69,9.69,0,0,1-.4-1.73c-.44-4.63,0-10.07,0-15a48,48,0,0,0-.3-5.65,2.57,2.57,0,0,1-.14-.61,2.3,2.3,0,0,0-.54-1.42.31.31,0,0,0,.28-.21c-.19-.25.23-.4-.09-.56,0-.2.27-.1.36-.3-.13-.61.6-.86.87-1.37.09-.05.05.1.14.1s.09-.25.14-.35c.36.2.68-.1,1.09-.15C301.69,258.1,301.83,258.2,302.15,258.05Zm4.77,33.08c-.27.05-.5-.11-.82-.11C306.19,291.33,306.83,291.33,306.92,291.13Zm.32-.05c.13.15.23,0,.18.25.64-.1,1.64-.25,1.83-.75C308.65,290.88,307.83,290.83,307.24,291.08Zm2.28-.4a5.4,5.4,0,0,0,3.29-2.58C311.34,289.51,309.79,290.37,309.52,290.68Z"/><path class="cls-1" d="M333,258a7,7,0,0,1,1,2.95,32.25,32.25,0,0,1-.75,6.41c-.87.76-1,2.18-2.15,2.64a9.1,9.1,0,0,1-.83,1,38.33,38.33,0,0,1-.66-7.32c-.45-.21-1.6,1.36-2.28,2.89a16.92,16.92,0,0,0-1.34,4c-.92,4-1.3,8.79.05,12.41.59,1.43,2.4,4.69,3.36,3.93,1.6-1.27,1.7-4.52,2-6.61a9.37,9.37,0,0,1-3.23-.42c-.27-.66-.54-1.27-.82-1.83.32,0,.32-.25.51-.35,2.18-.4,3.87-.8,5.78-.09a2.72,2.72,0,0,1-.23,1.63c-.09.36.13,1-.37,1a13.1,13.1,0,0,1-.05,1.42c-.32,2.85-.61,5.39-1.66,7.22-.19.3-.28.76-.46,1.06-.87,1.48-3.88,2.79-5.84,1.77a9,9,0,0,1-2.23-2.15,9.54,9.54,0,0,1-1.13-1.78,23.24,23.24,0,0,1-1.72-4.13,25.94,25.94,0,0,1-.8-6.82,31.29,31.29,0,0,1,.58-7.57c1.06-4.73,3.4-8.89,6.6-11.22,1.22.56,2.32,1.33,3.5,1.94a4.58,4.58,0,0,0-.14-1c.51-.16.28-.56.24-1.12A2.62,2.62,0,0,1,333,258Z"/><path class="cls-1" d="M338.89,258.17a4.35,4.35,0,0,0,1.73.42A15.11,15.11,0,0,1,342.8,260a4.61,4.61,0,0,1,.13,2.85c0,.15.09.2.22.3-.5,1.12-.14,2.34-.15,4,.22,4.37-.3,10.53.18,15.77a7.62,7.62,0,0,0,.9,2.75c.41.3.68.66,1.28.66,2,0,2.88-1.82,3.52-4.16a24.41,24.41,0,0,0,.47-4.22c0-1.83-.1-11.85-.09-14.24a21.21,21.21,0,0,1,.33-4.63c.37-.25,1-.2,1-.6.23-.11.18.1.28.15.13-.61.86-.41,1,.16.28.1.05-.31.28-.31.18.46.22.76.36,1.07.09.15.32.36.36.56a3.73,3.73,0,0,1,.09,1c0,1.37.22,2.8.21,4.32,0,4,.14,13.68-.32,15.92a22.94,22.94,0,0,1-.56,2.39,11,11,0,0,1-.64,2,5.83,5.83,0,0,1-.74,1.42,6.7,6.7,0,0,1-1.55,2.34,16.46,16.46,0,0,1-1.28,1.16,8.05,8.05,0,0,1-3.93,1.51,4.87,4.87,0,0,1-.95.05,5.59,5.59,0,0,1-2.55-.67,12.26,12.26,0,0,1-2.28-2.14c-.27-.41-.45-1.07-.77-1.58a10,10,0,0,1-.85-2.39,9.7,9.7,0,0,1-.41-1.73c-.44-4.63,0-10.08,0-15a44.08,44.08,0,0,0-.3-5.65,3.15,3.15,0,0,1-.13-.61,2.36,2.36,0,0,0-.54-1.42.31.31,0,0,0,.27-.2c-.18-.26.23-.41-.09-.56,0-.21.28-.1.37-.31-.14-.61.59-.86.87-1.37.09-.05,0,.1.14.1s.09-.25.13-.35c.37.2.69-.1,1.1-.15C338.43,258.22,338.57,258.32,338.89,258.17Zm4.76,33.08c-.27.05-.5-.1-.82-.1C342.92,291.45,343.56,291.45,343.65,291.25Zm.32-.05c.14.15.23,0,.19.25.63-.09,1.64-.24,1.82-.75C345.39,291,344.57,291,344,291.2Zm2.28-.4a5.37,5.37,0,0,0,3.29-2.58A34.86,34.86,0,0,1,346.25,290.8Z"/><path class="cls-1" d="M369.23,260.82a46.85,46.85,0,0,1,.31,4.88,6.61,6.61,0,0,1,.08,2.24c-.18.41-.5.66-.55,1.17-.23-.36-.64.15-.64.45-.09-.05-.09-.15-.27-.15-.1.2,0,.51-.14.66s-.18-.25-.27-.36a1,1,0,0,1-.46.31c-.14.05-.32.35-.55.3-.41,0-.73-.87-.77-1.48-.82-1.27-.63-3-.71-4.63a4,4,0,0,0-1.74,2.28,5.23,5.23,0,0,0,.85,4c1.31,2.29,4.76,7.79,5.25,10.13,1.4,5.66-1.16,8.14-1.48,8.6a2.1,2.1,0,0,1-.42.86l-.32.15a16.45,16.45,0,0,1-1.32,1.17c-1.46.55-2.6,1.11-4.15.8a6.85,6.85,0,0,1-2.78-1.08,12.35,12.35,0,0,1-3.07-7.79A15.83,15.83,0,0,1,356,281c.1-.87,1.24-.51,1.33-1.32,1.55.05,2.64.36,3.41,1.69a11.47,11.47,0,0,0,.59,1.22c.86,2.65-.33,5.34,1.85,6.41,2.92-1,.93-6.15-.34-8.29-.41-.76-2.35-3.92-3.26-5.2a19.65,19.65,0,0,1-2.86-5.14,10.4,10.4,0,0,1,1.45-9.31,19.81,19.81,0,0,1,1.64-1.67,4.05,4.05,0,0,1,.87-.45,3.12,3.12,0,0,0,.37-.76c.23-.61,2.55,1.07,3.68,1.58.32.16.41.57.5,1,.92-.91,0-2,.83-2.84C367.88,257.56,368.83,258.73,369.23,260.82Z"/><path class="cls-1" d="M385.65,258.94c0,.15-.23.15-.19.46.05.15.19,0,.32,0,.05.3-.18.45,0,.66s.14-.1.37.2a.42.42,0,0,1-.14.41c0,.15.18.05.23,0,.23.2-.32.71,0,.71-.14.26-.14.51-.41.46-.51,1.17-2.24,1.26-3.7,1.36,0,.41-.05,1-.05,1.63,0,1.57-.28,16.53-.28,17.85s.3,4.88.16,6.46c-.05.15-.14.35-.19.56-.09,1.07-.18.91-1,1.52-.28.2-.74.71-1.24.71s-.59-.31-.86-.46a1.48,1.48,0,0,1-1.6.81c-.5-.41-.68-1.18-1.13-1.58a.48.48,0,0,1,.09-.46,40.47,40.47,0,0,1-.21-7.22c.1-1.78.06-3.67.16-5.55.1-2.9.07-5.9.12-8.7a36.25,36.25,0,0,0-.12-5.9c-1.55-.15-3,.05-4.05-.82a1.25,1.25,0,0,1,.05-.77,1.89,1.89,0,0,1-.18-1.73c.09-.15.41,0,.37-.3a.94.94,0,0,1,.27.2c2.1-.8,9.16-.68,9.62-.78A26,26,0,0,1,385.65,258.94Z"/><path class="cls-1" d="M390.94,258.35a4.34,4.34,0,0,0,1.73.41,16,16,0,0,1,2.18,1.38A4.61,4.61,0,0,1,395,263c0,.15.09.2.22.3-.5,1.12-.14,2.34-.14,4,.21,4.38-.31,10.53.17,15.77a7.55,7.55,0,0,0,.9,2.75c.41.3.68.66,1.28.66,2,0,2.88-1.82,3.52-4.16a24.18,24.18,0,0,0,.47-4.22c.05-1.83-.1-11.85-.09-14.24a21.11,21.11,0,0,1,.33-4.62c.37-.26,1-.2,1-.61.23-.1.19.1.28.15.13-.61.86-.4,1,.16.28.1.05-.31.28-.31.18.46.22.77.36,1.07s.32.36.36.56a3.77,3.77,0,0,1,.09,1c0,1.37.22,2.8.21,4.32,0,4,.14,13.69-.32,15.92a22.94,22.94,0,0,1-.56,2.39,11,11,0,0,1-.64,2,5.66,5.66,0,0,1-.74,1.42,6.7,6.7,0,0,1-1.55,2.34,16.51,16.51,0,0,1-1.28,1.17,8.25,8.25,0,0,1-3.93,1.51,5.74,5.74,0,0,1-.95.05,5.85,5.85,0,0,1-2.55-.67,12.31,12.31,0,0,1-2.28-2.15c-.27-.41-.45-1.07-.77-1.58a9.8,9.8,0,0,1-.85-2.39,9.7,9.7,0,0,1-.41-1.73c-.44-4.63,0-10.07,0-15a43.93,43.93,0,0,0-.3-5.64,3.51,3.51,0,0,1-.13-.61,2.39,2.39,0,0,0-.54-1.43.31.31,0,0,0,.27-.2c-.18-.26.23-.41-.09-.56,0-.2.28-.1.37-.31-.14-.61.59-.86.87-1.37.09-.05,0,.11.14.11s.09-.26.13-.36c.37.21.69-.1,1.1-.15C390.48,258.4,390.62,258.5,390.94,258.35Zm4.76,33.07c-.27.05-.5-.1-.82-.1C395,291.62,395.61,291.63,395.7,291.42Zm.32-.05c.14.16.23,0,.19.26.63-.1,1.64-.25,1.82-.76C397.44,291.17,396.62,291.12,396,291.37Zm2.28-.4a5.34,5.34,0,0,0,3.29-2.58A34.86,34.86,0,0,1,398.3,291Z"/><path class="cls-1" d="M421.28,261a47,47,0,0,1,.31,4.88,6.62,6.62,0,0,1,.08,2.24c-.18.41-.5.66-.55,1.17-.23-.36-.64.15-.64.46-.09-.06-.09-.16-.27-.16-.1.21,0,.51-.14.66s-.18-.25-.27-.35a1,1,0,0,1-.46.3c-.14.05-.32.35-.55.3-.41,0-.73-.86-.77-1.47-.82-1.28-.63-3.06-.71-4.64a4,4,0,0,0-1.74,2.29,5.21,5.21,0,0,0,.85,4c1.31,2.29,4.76,7.8,5.25,10.14,1.4,5.65-1.16,8.13-1.48,8.59a2.1,2.1,0,0,1-.42.86l-.32.15a13.3,13.3,0,0,1-1.32,1.17c-1.46.55-2.6,1.11-4.15.8a6.71,6.71,0,0,1-2.78-1.08,12.35,12.35,0,0,1-3.07-7.79,14.45,14.45,0,0,1-.08-2.39c.09-.87,1.23-.51,1.32-1.32,1.55.06,2.64.37,3.41,1.69a9.86,9.86,0,0,0,.59,1.22c.86,2.65-.33,5.34,1.85,6.42,2.92-1,.93-6.15-.34-8.29-.41-.77-2.35-3.93-3.26-5.2a19.74,19.74,0,0,1-2.86-5.15,10.38,10.38,0,0,1,1.45-9.3,18.51,18.51,0,0,1,1.64-1.68,4.05,4.05,0,0,1,.87-.45,3,3,0,0,0,.37-.76c.23-.61,2.55,1.07,3.68,1.59.32.15.41.56.5,1,.92-.92,0-2,.83-2.85C419.93,257.73,420.88,258.9,421.28,261Z"/></g></g></svg>